<svg width="247" height="236" viewBox="0 0 247 236" fill="none" xmlns="http://www.w3.org/2000/svg">
<g clip-path="url(#clip0_137_33)">
<path d="M170.471 217.363C160.521 199.503 148.081 183.783 133.51 170.647C121.859 160.143 108.804 151.259 94.7346 144.229C70.8177 132.291 52.0962 129.883 51.9118 129.853L38.5905 128.213L51.5326 124.647C52.6291 124.35 53.828 124.083 55.0781 123.868L57.5887 121.173C59.8943 118.704 63.6447 116.275 67.5284 114.174C65.1306 114.543 63.696 114.851 63.6652 114.851L56.7689 116.316L60.9805 110.66C64.444 106.018 73.9534 102.39 81.0239 100.238C72.7442 95.6989 66.2885 88.034 65.9401 87.6139L65.2638 86.8044L65.6122 80.5843C50.016 77.8791 37.9654 69.6711 30.4747 63.0925C21.9593 55.6223 17.4198 48.7157 17.2251 48.4288L16.2107 46.8712L17.3276 45.3854C17.7887 44.7808 18.5368 44.2377 19.4898 43.7663C16.2619 43.0388 12.4807 42.301 9.00693 41.7271L4.71338 41.0201L7.29566 37.5156C12.6139 30.2913 20.9859 25.1473 26.1197 22.4523L19.1824 18.087L22.2975 15.7711C27.503 11.9079 41.1625 7.71686 42.843 7.2045C52.1782 4.17134 61.6465 2.62402 71.0022 2.62402C93.9661 2.62402 108.773 11.744 110.146 12.615C124.544 20.7102 140.714 36.7983 145.489 41.7067C149.987 39.647 153.666 39.1756 156.084 39.1756C157.334 39.1756 158.093 39.3088 158.226 39.3293L159.035 39.483L159.62 40.0671C178.198 58.6452 206.244 69.8556 206.521 69.958L206.828 70.081L207.095 70.2757C209.113 71.7308 209.677 74.6615 208.919 79.7441C208.488 82.5928 207.781 85.1956 207.679 85.5645C204.584 97.8405 204.379 103.815 204.461 106.018C215.118 111.951 238.133 119.052 238.379 119.124L241.955 120.22L239.752 123.233C238.195 125.354 234.618 126.645 228.132 127.404C223.756 127.916 218.059 128.182 211.214 128.182C204.369 128.182 198.149 127.926 194.716 127.752C194.573 128.818 194.357 129.853 194.183 130.642L206.121 144.342L205.639 145.787C198.753 166.455 180.616 179.336 175.482 182.646C175.79 204.79 175.462 215.99 175.462 216.103L175.175 225.735L170.482 217.312L170.471 217.363Z" fill="#1D1D1B"/>
<path d="M71.0127 5.31888C94.0893 5.31888 108.784 14.9307 108.784 14.9307C125.384 24.2351 144.925 44.9856 144.925 44.9856C149.936 42.3111 153.963 41.8705 156.085 41.8705C157.15 41.8705 157.734 41.9832 157.734 41.9832C176.917 61.1658 205.548 72.4684 205.548 72.4684C208.12 74.3334 205.117 84.9187 205.117 84.9187C200.68 102.523 201.971 107.678 201.971 107.678C212.423 113.98 237.611 121.706 237.611 121.706C235.326 124.831 222.609 125.559 211.214 125.559C201.213 125.559 192.237 124.995 192.237 124.995C192.38 127.28 191.273 131.39 191.273 131.39L203.119 144.977C195.454 167.972 172.808 181.211 172.808 181.211C173.156 204.554 172.808 216.051 172.808 216.051C128.561 136.605 52.2502 127.198 52.2502 127.198C58.0194 125.61 66.8627 125.354 72.0682 125.354C74.6197 125.354 76.29 125.415 76.29 125.415C67.2725 123.13 59.5462 122.987 59.5462 122.987C65.5613 116.541 83.0224 110.106 83.0224 110.106C71.853 110.393 63.1224 112.258 63.1224 112.258C68.1333 105.526 89.7445 100.669 89.7445 100.669C78.7186 98.8036 67.9898 85.9229 67.9898 85.9229L68.4202 78.3401C37.2176 74.19 19.4696 46.994 19.4696 46.994C20.7607 45.2725 28.774 43.9916 28.774 43.9916C26.0585 41.8397 9.44787 39.1242 9.44787 39.1242C17.041 28.8156 31.633 22.8108 31.633 22.8108L23.9066 17.9434C28.9175 14.2237 43.6631 9.78664 43.6631 9.78664C53.6541 6.52804 62.856 5.32913 71.023 5.32913M71.0127 0.000610352C61.3907 0.000610352 51.6456 1.57867 42.0645 4.70405C40.2098 5.26764 26.2634 9.5612 20.73 13.6703L14.4895 18.302L20.9349 22.3599C15.8216 25.434 9.52985 30.0248 5.15432 35.9681L0 42.9669L8.57686 44.3708C10.3394 44.6577 12.2044 44.9958 14.0386 45.3545L12.9729 46.7788L15.0121 49.894C15.2068 50.2014 19.9512 57.3949 28.733 65.1007C33.8976 69.63 39.4208 73.4419 45.1592 76.4033C50.8668 79.3648 56.7999 81.4859 62.8355 82.7668L62.6716 85.6155L62.5486 87.7059L63.891 89.3148C64.0139 89.4582 66.9139 92.932 71.2792 96.6312C72.4883 97.6662 73.6975 98.6089 74.8964 99.4799C66.7089 102.431 61.4419 105.577 58.8494 109.061L50.416 120.384L55.7342 119.247C55.7342 119.247 55.6728 119.308 55.6523 119.339L53.7361 121.388C52.7216 121.583 51.7481 121.808 50.8259 122.054L24.9416 129.176L51.5842 132.466C51.7584 132.486 70.3672 134.935 93.9459 146.781C107.739 153.708 120.527 162.459 131.942 172.788C146.206 185.689 158.39 201.111 168.145 218.624L177.532 235.47L178.116 216.195C178.126 215.744 178.434 205.282 178.157 184.07C184.736 179.602 201.49 166.64 208.161 146.637L209.124 143.748L207.126 141.452L197.627 130.56C201.182 130.703 206.039 130.846 211.214 130.846C218.162 130.846 223.962 130.58 228.45 130.057C235.828 129.197 239.855 127.629 241.904 124.811L246.321 118.775L239.168 116.582C238.943 116.511 217.998 110.055 207.136 104.429C207.228 101.683 207.792 96.0881 210.261 86.2509C210.405 85.7283 211.122 83.0537 211.563 80.1436C211.932 77.6945 212.895 71.1773 208.663 68.1237L208.12 67.7343L207.495 67.4883C207.218 67.3756 179.633 56.3292 161.495 38.1815L160.337 37.0236L158.728 36.7161C158.4 36.6547 157.499 36.5112 156.085 36.5112C153.728 36.5112 150.274 36.9006 146.124 38.5401C140.109 32.4636 125.097 17.9639 111.52 10.3195C109.624 9.17181 94.3045 0.000610352 71.0127 0.000610352Z" fill="#E94E1B"/>
<path d="M125.37 100.852C125.37 100.852 134.244 105.74 148.898 118.047L156.501 113.343C156.501 113.343 169.73 126.009 180.131 127.638C180.131 127.638 182.744 131.983 184.373 134.155L180.131 133.069L181.484 137.598L194.149 142.087L186.904 133.612C186.904 133.612 188.534 115.147 184.189 109.542C184.189 109.542 163.551 110.987 146.541 105.381C129.53 99.7659 125.36 100.852 125.36 100.852H125.37Z" fill="white"/>
<path d="M124.062 105.382C124.062 105.382 120.301 107.503 121.388 110.7C121.388 110.7 125.374 106.468 139.669 122.577C139.669 122.577 124.462 115.517 125.374 129.637C125.374 129.637 141.482 159.682 167.725 177.42C167.725 177.42 187.092 168.003 196.325 146.473C196.325 146.473 156.238 133.439 124.062 105.382Z" fill="white"/>
<path d="M148.809 154.404C148.809 154.404 156.966 149.926 162.653 139.351L167.377 141.39C167.377 141.39 155.459 157.919 151.975 158.554L148.809 154.394V154.404Z" fill="#1D1D1B"/>
<path d="M154.322 159.456L158.759 163.165C158.759 163.165 170.943 151.668 174.304 144.515L170.41 143.194C170.41 143.194 158.913 158.308 154.322 159.456Z" fill="#1D1D1B"/>
<path d="M159.764 164.497L163.781 167.766C163.781 167.766 177.215 156.802 181.816 147.343L178.188 145.929C178.188 145.929 167.5 161.136 159.764 164.497Z" fill="#1D1D1B"/>
<path d="M185.709 148.584L189.603 150.09C189.603 150.09 179.264 166.619 170.154 172.367L166.086 169.539C166.086 169.539 176.61 161.136 185.709 148.584Z" fill="#1D1D1B"/>
<path d="M64.6796 47.4955C64.6796 47.4955 57.8243 38.355 27.5234 35.3936C27.5234 35.3936 36.1823 28.5587 52.5777 25.8227C52.5777 25.8227 48.9297 22.6359 42.7814 19.2133C42.7814 19.2133 64.4234 6.23019 98.5977 21.4882C98.5977 21.4882 111.243 16.8053 180.134 94.3454C180.134 94.3454 136.553 62.528 117.217 54.1971C97.8804 45.8662 64.6796 47.4852 64.6796 47.4852V47.4955Z" fill="white"/>
<path d="M69.8634 70.7463C69.8634 70.7463 53.3347 70.7463 34.1213 51.5329C34.1213 51.5329 46.2232 46.3478 64.6783 47.4955C64.6783 47.4955 61.2148 39.2363 49.1129 32.8933C49.1129 32.8933 70.2528 20.7914 105.605 38.0784C105.605 38.0784 151.287 61.4726 180.133 94.3557L174.784 93.4232C174.784 93.4232 136.357 60.7553 101.189 55.765C66.0207 50.7643 71.7898 71.1357 71.7898 71.1357L69.8634 70.7463Z" fill="#E94E1B" stroke="#E94E1B" stroke-width="1.03099" stroke-miterlimit="10"/>
<path d="M138.899 156.627C138.899 156.627 158.072 177.644 162.386 179.714L156.627 183.874L157.037 180.749C157.037 180.749 143.726 166.28 138.899 156.627Z" fill="white"/>
<path d="M156.618 183.875C156.618 183.875 163.709 192.247 168.914 200.937L167.183 181.601L162.367 179.705" fill="white"/>
</g>
<defs>
<clipPath id="clip0_137_33">
<rect width="246.311" height="235.5" fill="white"/>
</clipPath>
</defs>
</svg>
