<svg width="122" height="51" viewBox="0 0 122 51" fill="none" xmlns="http://www.w3.org/2000/svg">
<g clip-path="url(#clip0_101_8442)">
<path d="M5.90977 1.13135V23.9997H0.883484V1.13135H5.90977Z" fill="white"/>
<path d="M15.3373 1.13135L24.8897 16.4728H24.9522V1.13135H29.6659V23.9997H24.6397L15.1247 8.68327H15.0622V23.9997H10.3485V1.13135H15.3498H15.3373Z" fill="white"/>
<path d="M43.932 1.13135C45.4074 1.13135 46.7828 1.36891 48.0456 1.83153C49.3209 2.30665 50.4212 3.00683 51.3464 3.94456C52.2717 4.8823 52.9968 6.0576 53.522 7.47046C54.0471 8.88332 54.3097 10.5337 54.3097 12.4342C54.3097 14.0972 54.0971 15.635 53.672 17.0479C53.2469 18.4608 52.5967 19.6736 51.734 20.6988C50.8713 21.7241 49.796 22.5243 48.4957 23.112C47.2079 23.6996 45.6825 23.9872 43.932 23.9872H34.067V1.13135H43.932ZM43.5819 19.7736C44.3071 19.7736 45.0073 19.6611 45.695 19.4235C46.3827 19.186 46.9828 18.7984 47.5204 18.2482C48.0581 17.6981 48.4832 16.9979 48.7958 16.1227C49.1209 15.2474 49.2709 14.1847 49.2709 12.9219C49.2709 11.7716 49.1584 10.7213 48.9333 9.79606C48.7082 8.87082 48.3457 8.07062 47.833 7.40795C47.3204 6.74528 46.6452 6.23265 45.795 5.88256C44.9573 5.53247 43.907 5.35742 42.6692 5.35742H39.0808V19.7736H43.5694H43.5819Z" fill="white"/>
<path d="M62.8368 1.13135V23.9997H57.8105V1.13135H62.8368Z" fill="white"/>
<path d="M80.8039 23.8249C79.7161 24.2875 78.6158 24.5126 77.5031 24.5126C75.7526 24.5126 74.1772 24.2125 72.7769 23.5999C71.3765 22.9872 70.2012 22.1495 69.2385 21.0867C68.2757 20.0239 67.538 18.7611 67.0254 17.3233C66.5128 15.8854 66.2627 14.3225 66.2627 12.6596C66.2627 10.9966 66.5253 9.37123 67.0254 7.90836C67.538 6.44549 68.2757 5.17016 69.2385 4.08238C70.2012 2.99461 71.3765 2.14439 72.7769 1.51923C74.1772 0.894071 75.7526 0.593994 77.5031 0.593994C78.6784 0.593994 79.8162 0.769039 80.9164 1.11913C82.0167 1.46922 83.0045 1.99435 83.8922 2.66952C84.7799 3.3572 85.5051 4.19491 86.0928 5.19517C86.6679 6.19542 87.018 7.35822 87.1555 8.65855H82.3543C82.0542 7.38322 81.4791 6.42048 80.6289 5.77031C79.7786 5.13265 78.7409 4.80757 77.5156 4.80757C76.3778 4.80757 75.4275 5.03263 74.6273 5.47024C73.8396 5.90785 73.202 6.4955 72.7018 7.23319C72.2142 7.97087 71.8516 8.80859 71.6266 9.74633C71.4015 10.6841 71.289 11.6593 71.289 12.6596C71.289 13.6598 71.4015 14.5601 71.6266 15.4603C71.8516 16.373 72.2142 17.1857 72.7018 17.9109C73.1895 18.6361 73.8396 19.2237 74.6273 19.6614C75.415 20.099 76.3778 20.324 77.5156 20.324C79.1785 20.324 80.4663 19.8989 81.379 19.0612C82.2918 18.2235 82.8169 16.9982 82.967 15.3978H77.9032V11.6468H87.5181V24.0125H84.3173L83.8047 21.4118C82.9044 22.5621 81.9167 23.3748 80.8289 23.8249H80.8039Z" fill="white"/>
<path d="M91.344 7.89542C91.8566 6.43255 92.5943 5.15722 93.5571 4.06944C94.5198 2.98167 95.6951 2.13145 97.0955 1.50629C98.4958 0.881131 100.071 0.581055 101.822 0.581055C103.572 0.581055 105.173 0.893634 106.56 1.50629C107.948 2.13145 109.124 2.98167 110.086 4.06944C111.049 5.15722 111.787 6.43255 112.299 7.89542C112.812 9.35829 113.062 10.9462 113.062 12.6466C113.062 14.3471 112.799 15.8599 112.299 17.3103C111.799 18.7607 111.049 20.011 110.086 21.0738C109.124 22.1365 107.948 22.9743 106.56 23.5869C105.173 24.1996 103.597 24.4996 101.822 24.4996C100.046 24.4996 98.4958 24.1996 97.0955 23.5869C95.6951 22.9743 94.5198 22.1365 93.5571 21.0738C92.5943 20.011 91.8566 18.7482 91.344 17.3103C90.8314 15.8725 90.5813 14.3096 90.5813 12.6466C90.5813 10.9837 90.8439 9.35829 91.344 7.89542ZM95.9452 15.4598C96.1702 16.3726 96.5328 17.1853 97.0204 17.9105C97.5081 18.6357 98.1582 19.2233 98.9459 19.6609C99.7336 20.0985 100.696 20.3236 101.834 20.3236C102.972 20.3236 103.922 20.111 104.722 19.6609C105.51 19.2233 106.148 18.6357 106.648 17.9105C107.136 17.1853 107.498 16.3726 107.723 15.4598C107.948 14.5471 108.061 13.6219 108.061 12.6591C108.061 11.6964 107.948 10.6836 107.723 9.74589C107.498 8.80815 107.136 7.97044 106.648 7.23275C106.16 6.49506 105.51 5.90741 104.722 5.4698C103.935 5.03219 102.972 4.80713 101.834 4.80713C100.696 4.80713 99.7461 5.03219 98.9459 5.4698C98.1582 5.90741 97.5206 6.49506 97.0204 7.23275C96.5328 7.97044 96.1702 8.80815 95.9452 9.74589C95.7201 10.6836 95.6076 11.6589 95.6076 12.6591C95.6076 13.6594 95.7201 14.5596 95.9452 15.4598Z" fill="white"/>
<path d="M118.051 0.581055C118.676 0.581055 119.289 0.743596 119.889 1.06868C120.489 1.39376 120.952 1.85638 121.289 2.45653C121.627 3.05669 121.789 3.68184 121.789 4.33201C121.789 4.98218 121.627 5.59483 121.302 6.19498C120.977 6.79514 120.514 7.24525 119.914 7.58284C119.326 7.90792 118.701 8.07046 118.051 8.07046C117.401 8.07046 116.788 7.90792 116.188 7.58284C115.6 7.25776 115.138 6.79514 114.8 6.19498C114.475 5.59483 114.3 4.98218 114.3 4.33201C114.3 3.68184 114.462 3.05669 114.8 2.45653C115.138 1.85638 115.6 1.39376 116.2 1.06868C116.801 0.743596 117.413 0.581055 118.038 0.581055L118.051 0.581055ZM118.051 1.20621C117.526 1.20621 117.013 1.34375 116.513 1.60632C116.013 1.88139 115.625 2.25648 115.35 2.75661C115.075 3.25674 114.925 3.78187 114.925 4.31951C114.925 4.85714 115.063 5.36977 115.338 5.8699C115.613 6.35753 116 6.74513 116.5 7.0202C117.001 7.29527 117.513 7.4328 118.051 7.4328C118.588 7.4328 119.101 7.29527 119.601 7.0202C120.101 6.74513 120.476 6.35753 120.752 5.8699C121.027 5.38228 121.164 4.85714 121.164 4.31951C121.164 3.78187 121.027 3.25674 120.752 2.75661C120.476 2.25648 120.089 1.86888 119.589 1.60632C119.089 1.33125 118.576 1.20621 118.063 1.20621H118.051ZM119.251 4.93216L119.864 5.10721C119.764 5.51981 119.551 5.8449 119.226 6.09496C118.901 6.34502 118.513 6.47006 118.051 6.47006C117.476 6.47006 117.001 6.28251 116.638 5.90741C116.275 5.53232 116.088 5.00718 116.088 4.34451C116.088 3.9069 116.175 3.53181 116.338 3.20672C116.5 2.88164 116.738 2.64408 117.038 2.48154C117.338 2.319 117.688 2.23148 118.088 2.23148C118.526 2.23148 118.889 2.3315 119.189 2.54405C119.476 2.75661 119.676 3.04418 119.789 3.39427L119.201 3.53181C119.101 3.28174 118.951 3.09419 118.764 2.96916C118.576 2.84413 118.338 2.76911 118.088 2.76911C117.713 2.76911 117.401 2.90665 117.151 3.16921C116.901 3.44428 116.776 3.83188 116.776 4.33201C116.776 4.83214 116.888 5.21974 117.126 5.4823C117.363 5.74487 117.663 5.8699 118.026 5.8699C118.326 5.8699 118.588 5.78238 118.814 5.60734C119.039 5.43229 119.189 5.20723 119.264 4.90716L119.251 4.93216Z" fill="white"/>
<path d="M5.90977 50.1936L0.883484 35.8774H2.93401L7.02255 48.2806H7.06006L11.1861 35.8774H13.1741L8.08532 50.1936H5.92227H5.90977Z" fill="white"/>
<path d="M14.1495 37.9655V35.8774H15.85V37.9655H14.1495ZM15.85 39.8284V50.1936H14.1495V39.8284H15.85Z" fill="white"/>
<path d="M19.8008 47.8807C19.9634 48.1432 20.1759 48.3433 20.4385 48.5058C20.7011 48.6684 20.9886 48.7684 21.3262 48.8309C21.6513 48.8934 21.9889 48.9309 22.339 48.9309C22.6015 48.9309 22.8891 48.9059 23.1767 48.8684C23.4768 48.8309 23.7393 48.7559 23.9894 48.6434C24.2395 48.5308 24.4395 48.3808 24.602 48.1683C24.7646 47.9557 24.8396 47.6931 24.8396 47.3805C24.8396 46.9429 24.6771 46.6054 24.3395 46.3803C24.0019 46.1552 23.5893 45.9677 23.0892 45.8302C22.589 45.6926 22.0389 45.5676 21.4512 45.4551C20.8636 45.3425 20.3135 45.18 19.8133 44.9799C19.3132 44.7799 18.9006 44.4798 18.563 44.1047C18.2254 43.7296 18.0629 43.2045 18.0629 42.5418C18.0629 42.0167 18.1754 41.5791 18.413 41.204C18.6505 40.8289 18.9506 40.5288 19.3132 40.2912C19.6758 40.0537 20.1009 39.8786 20.551 39.7661C21.0136 39.6536 21.4637 39.5911 21.9264 39.5911C22.514 39.5911 23.0516 39.6411 23.5518 39.7411C24.0519 39.8411 24.4895 40.0162 24.8646 40.2662C25.2397 40.5163 25.5523 40.8539 25.7773 41.2665C26.0024 41.6916 26.1399 42.2167 26.1774 42.8419H24.477C24.452 42.5043 24.3645 42.2292 24.2144 42.0042C24.0644 41.7791 23.8769 41.6041 23.6518 41.479C23.4267 41.3415 23.1767 41.254 22.9016 41.1915C22.6265 41.129 22.3515 41.1039 22.0639 41.1039C21.8138 41.1039 21.5513 41.129 21.2887 41.1665C21.0261 41.204 20.7886 41.279 20.576 41.379C20.3635 41.479 20.1884 41.6166 20.0509 41.7791C19.9133 41.9417 19.8508 42.1667 19.8508 42.4293C19.8508 42.7294 19.9509 42.9669 20.1634 43.167C20.376 43.367 20.6385 43.5171 20.9511 43.6421C21.2762 43.7671 21.6388 43.8797 22.0389 43.9672C22.439 44.0547 22.8391 44.1422 23.2392 44.2422C23.6643 44.3298 24.0894 44.4548 24.4895 44.5798C24.9021 44.7174 25.2522 44.8924 25.5773 45.105C25.9024 45.3175 26.1399 45.6051 26.34 45.9427C26.5275 46.2803 26.6276 46.6929 26.6276 47.1805C26.6276 47.8057 26.5025 48.3308 26.24 48.7434C25.9774 49.156 25.6398 49.4936 25.2147 49.7437C24.7896 49.9937 24.3145 50.1688 23.7893 50.2688C23.2642 50.3688 22.7391 50.4188 22.2139 50.4188C21.6388 50.4188 21.0886 50.3563 20.576 50.2438C20.0509 50.1187 19.5883 49.9312 19.1882 49.6561C18.7881 49.3811 18.463 49.0185 18.2254 48.5684C17.9879 48.1182 17.8503 47.5806 17.8253 46.9304H19.5258C19.5383 47.3055 19.6258 47.6181 19.7883 47.8807H19.8008Z" fill="white"/>
<path d="M28.628 37.9655V35.8774H30.3284V37.9655H28.628ZM30.3284 39.8284V50.1936H28.628V39.8284H30.3284Z" fill="white"/>
<path d="M32.7416 42.8919C32.9542 42.2292 33.2793 41.6541 33.7044 41.1665C34.1295 40.6788 34.6546 40.2912 35.2923 40.0162C35.9175 39.7411 36.6426 39.5911 37.4553 39.5911C38.2681 39.5911 39.0057 39.7286 39.6309 40.0162C40.2561 40.2912 40.7812 40.6788 41.2063 41.1665C41.6314 41.6541 41.9565 42.2292 42.1691 42.8919C42.3816 43.5546 42.4941 44.2673 42.4941 45.0299C42.4941 45.7926 42.3816 46.5053 42.1691 47.1555C41.9565 47.8057 41.6314 48.3808 41.2063 48.8684C40.7812 49.3561 40.2561 49.7311 39.6309 50.0062C39.0057 50.2813 38.2806 50.4188 37.4553 50.4188C36.6301 50.4188 35.9175 50.2813 35.2923 50.0062C34.6671 49.7311 34.142 49.3561 33.7044 48.8684C33.2793 48.3808 32.9542 47.8057 32.7416 47.1555C32.5291 46.5053 32.4166 45.7926 32.4166 45.0299C32.4166 44.2673 32.5291 43.5546 32.7416 42.8919ZM34.4796 46.7054C34.6421 47.193 34.8797 47.6056 35.1673 47.9307C35.4673 48.2558 35.8049 48.5058 36.205 48.6809C36.6051 48.8559 37.0177 48.9434 37.4553 48.9434C37.893 48.9434 38.3181 48.8559 38.7057 48.6809C39.1058 48.5058 39.4434 48.2558 39.7434 47.9307C40.031 47.6056 40.2686 47.193 40.4311 46.7054C40.5936 46.2178 40.6812 45.6551 40.6812 45.0299C40.6812 44.4048 40.5936 43.8421 40.4311 43.3545C40.2686 42.8669 40.031 42.4543 39.7434 42.1167C39.4434 41.7791 39.1058 41.5291 38.7057 41.354C38.3056 41.179 37.893 41.0914 37.4553 41.0914C37.0177 41.0914 36.5926 41.179 36.205 41.354C35.8049 41.5291 35.4673 41.7791 35.1673 42.1167C34.8672 42.4543 34.6421 42.8669 34.4796 43.3545C34.3171 43.8421 34.2295 44.4048 34.2295 45.0299C34.2295 45.6551 34.3171 46.2178 34.4796 46.7054Z" fill="white"/>
<path d="M46.0826 39.8282V41.4661H46.1202C46.8328 40.2158 47.9456 39.5781 49.4835 39.5781C50.1712 39.5781 50.7338 39.6656 51.1839 39.8532C51.6341 40.0407 52.0092 40.3033 52.2842 40.6409C52.5593 40.9785 52.7594 41.3786 52.8719 41.8287C52.9844 42.2913 53.0469 42.8039 53.0469 43.3666V50.1808H51.3465V43.1665C51.3465 42.5289 51.1589 42.0162 50.7838 41.6411C50.4088 41.2661 49.8961 41.0785 49.246 41.0785C48.7208 41.0785 48.2707 41.1535 47.8956 41.3161C47.5205 41.4786 47.1954 41.7037 46.9454 42.0037C46.6953 42.3038 46.4953 42.6414 46.3702 43.0415C46.2452 43.4416 46.1827 43.8667 46.1827 44.3293V50.1808H44.4822V39.8157H46.0826V39.8282Z" fill="white"/>
</g>
<defs>
<clipPath id="clip0_101_8442">
<rect width="120.906" height="49.8377" fill="white" transform="translate(0.883484 0.581055)"/>
</clipPath>
</defs>
</svg>
