<svg width="53" height="55" viewBox="0 0 53 55" fill="none" xmlns="http://www.w3.org/2000/svg">
<g clip-path="url(#clip0_101_11104)">
<path d="M32.3782 33.5157C30.7446 34.4078 29.1485 35.2783 27.5471 36.1489C24.742 37.6751 21.9261 39.1744 19.1371 40.7274C18.3955 41.1412 17.8097 41.1143 17.138 40.6092C16.031 39.7816 14.8756 39.0132 13.7202 38.2447C13.3817 38.019 13.344 37.8309 13.4784 37.4494C14.2146 35.4073 14.9186 33.3545 15.6172 31.3017C15.7408 30.9363 15.8375 30.8449 16.1761 31.1297C16.6328 31.5113 17.1487 31.8176 17.6216 32.183C18.1644 32.6022 18.691 32.5914 19.2768 32.2636C22.0658 30.7159 24.871 29.179 27.6654 27.6421C33.6679 24.3479 39.6705 21.0538 45.6731 17.7596C45.7752 17.7058 45.8773 17.6575 46.0923 17.5554C45.6946 18.6946 45.3292 19.7318 44.9638 20.7743C42.3306 28.2386 39.692 35.6975 37.075 43.1671C36.7901 43.9786 36.3119 44.5643 35.5649 44.9728C32.4642 46.6763 29.3689 48.3905 26.2735 50.1102C23.952 51.3999 21.6198 52.6681 19.3359 54.0223C18.1966 54.6994 17.1702 54.6779 16.1062 53.9686C13.8976 52.4961 11.6782 51.0398 9.48562 49.5459C6.60524 47.5844 3.76248 45.5746 1.02181 43.4251C0.247979 42.8178 0.0330252 42.1192 0.296344 41.2003C1.03256 38.6316 1.92999 36.1166 2.81668 33.6017C5.08444 27.1531 7.38982 20.7152 9.68446 14.272C9.83492 13.8492 10.0911 13.7632 10.4529 14.014C12.7583 15.5885 15.0798 17.1362 17.3529 18.7484C18.202 19.3502 18.8737 19.3556 19.8034 18.8182C26.784 14.7932 33.8023 10.8273 40.8152 6.85067C44.464 4.78174 48.1182 2.72893 51.7724 0.670745C51.853 0.627754 51.9337 0.590137 52.1164 0.493408C51.5682 2.0357 51.0631 3.47589 50.5472 4.91609C49.725 7.23221 48.8921 9.54834 48.0806 11.8698C47.9678 12.1869 47.7904 12.375 47.5002 12.5308C40.6969 16.2442 33.899 19.9629 27.0957 23.6869C24.5969 25.0519 22.098 26.4169 19.6207 27.8141C18.9866 28.1687 18.46 28.1741 17.8581 27.7764C16.692 26.9972 15.4882 26.2664 14.3167 25.4979C14.0158 25.3045 13.8761 25.2507 13.731 25.6699C12.1779 30.1141 10.6141 34.5529 9.03422 38.9863C8.90525 39.3517 8.94824 39.5452 9.28142 39.7816C11.6298 41.4583 13.9567 43.1671 16.3588 44.7686C16.5039 44.8653 16.6543 44.9513 16.7941 45.048C17.5625 45.5907 18.2719 45.5854 19.1424 45.1232C22.8289 43.1671 26.4992 41.1788 30.1696 39.1905C30.3684 39.083 30.5672 39.0024 30.6532 38.7391C31.2175 37.0678 31.8032 35.3966 32.3836 33.7307C32.3997 33.6823 32.3836 33.6286 32.3836 33.5211L32.3782 33.5157Z" fill="white"/>
</g>
<defs>
<clipPath id="clip0_101_11104">
<rect width="51.9275" height="54.034" fill="white" transform="translate(0.188965 0.48291)"/>
</clipPath>
</defs>
</svg>
