<svg width="197" height="31" viewBox="0 0 197 31" fill="none" xmlns="http://www.w3.org/2000/svg">
<g clip-path="url(#clip0_101_11085)">
<path d="M73.8402 30.5773H43.7768C44.1149 30.0641 44.3987 29.6052 44.7066 29.1584C45.4674 28.0413 46.2162 26.9182 47.0071 25.8314C47.1581 25.6261 47.4902 25.445 47.7438 25.445C52.8459 25.4268 57.9481 25.445 63.0502 25.445C63.3099 25.445 63.5635 25.4148 63.962 25.3906C59.8138 18.7971 55.7321 12.3122 51.59 5.73679C51.3908 6.02058 51.2519 6.18964 51.1372 6.37682C46.1437 14.3108 41.1502 22.2448 36.1689 30.1848C35.9877 30.4747 35.8066 30.6135 35.4443 30.6075C23.8029 30.5954 12.1676 30.6015 0.526269 30.6015C0.42966 30.6015 0.33909 30.5894 0.163986 30.5773C0.973084 29.3455 1.73992 28.1742 2.51882 27.0088C5.77937 22.112 9.04595 17.2211 12.3125 12.3243C14.77 8.63505 17.2335 4.95184 19.7091 1.27467C19.848 1.06938 20.1861 0.882202 20.4277 0.882202C26.6167 0.85805 32.8057 0.864088 38.9947 0.864088C39.1275 0.864088 39.2664 0.876164 39.5079 0.894278C38.6445 2.21057 37.7327 3.40007 37.0564 4.70428C36.4104 5.94812 35.5469 6.28021 34.1884 6.23795C30.7708 6.12926 27.3473 6.21379 23.9237 6.18964C23.4588 6.18964 23.1871 6.32852 22.9274 6.71495C19.2623 12.2518 15.5791 17.7766 11.9019 23.3015C11.5155 23.8871 11.123 24.4668 10.6521 25.1733C11.0445 25.2034 11.2619 25.2336 11.4732 25.2336C18.3385 25.2336 25.2038 25.2336 32.069 25.2457C32.5158 25.2457 32.7694 25.0887 32.9989 24.7144C36.833 18.6099 40.6793 12.5115 44.5195 6.41305C45.7029 4.52918 46.8924 2.64531 48.0638 0.749365C48.2389 0.471615 48.414 0.368968 48.7401 0.375006C50.6239 0.39312 52.5078 0.375006 54.3977 0.399158C54.6272 0.399158 54.9472 0.562185 55.0619 0.755403C60.0674 8.68335 65.0609 16.6173 70.0544 24.5513C71.2076 26.3809 72.373 28.2104 73.5262 30.0399C73.6229 30.1909 73.7074 30.3479 73.8402 30.5713V30.5773Z" fill="white"/>
<path d="M75.2712 30.5709C75.2712 30.2327 75.2712 29.9308 75.2712 29.6289C75.2712 22.0089 75.2712 14.3889 75.2712 6.77494C75.2712 6.17113 74.9673 5.86923 74.3595 5.86923C71.1654 5.86923 67.9652 5.86923 64.7711 5.86923C64.5296 5.86923 64.288 5.86923 64.0103 5.86923V0.924072H93.9831V5.82696C93.7235 5.83904 93.4699 5.86319 93.2103 5.86319C89.7263 5.86319 86.2424 5.86319 82.7584 5.86319C81.9252 5.86319 81.9252 5.86319 81.9252 6.71456C81.9252 12.6379 81.9252 18.5612 81.9252 24.4845C81.9252 25.0803 82.2291 25.3782 82.8369 25.3782C114.084 25.3782 145.331 25.3782 176.578 25.3782C176.904 25.3782 177.23 25.3782 177.598 25.3782V30.5648H75.2712V30.5709Z" fill="white"/>
<path d="M168.601 18.7186C168.492 15.44 168.39 12.2519 168.287 9.02151H171.481V23.2773C170.443 23.2773 169.404 23.3015 168.372 23.2532C168.209 23.2471 168.003 22.9694 167.907 22.7762C166.397 19.8658 164.906 16.9434 163.408 14.0271C163.366 13.9425 163.318 13.858 163.215 13.6648V23.2411H160.184V8.98529C161.229 8.98529 162.267 8.96113 163.3 9.00944C163.463 9.01548 163.656 9.3053 163.759 9.50456C165.256 12.3545 166.741 15.2165 168.227 18.0725C168.329 18.2658 168.444 18.4529 168.601 18.7186Z" fill="white"/>
<path d="M98.095 23.2711C96.9659 23.2711 95.9273 23.2892 94.8827 23.253C94.7378 23.253 94.5265 23.0235 94.4782 22.8605C94.2488 22.0755 94.0555 21.2845 93.8804 20.4875C93.7959 20.1192 93.6087 19.9803 93.2404 19.9864C92.383 19.9984 91.5196 20.0045 90.6561 19.9864C90.3059 19.9803 90.1429 20.1192 90.0644 20.4513C89.8712 21.2423 89.6598 22.0272 89.4244 22.8061C89.37 22.9812 89.1768 23.2409 89.044 23.2409C87.9873 23.2771 86.9246 23.259 85.7834 23.259C86.0914 22.1903 86.3812 21.194 86.665 20.1977C87.7095 16.599 88.7602 13.0064 89.7927 9.40168C89.8772 9.09978 89.998 8.9609 90.3301 8.96694C91.5377 8.98505 92.7453 8.99109 93.9589 8.96694C94.3997 8.95486 94.454 9.22658 94.5265 9.52244C95.2269 12.2033 95.9153 14.8782 96.6157 17.5591C97.0504 19.2316 97.4912 20.9042 97.932 22.5767C97.9803 22.7699 98.0225 22.9692 98.0889 23.2711H98.095ZM93.4095 17.8851C92.9687 15.7597 92.54 13.7068 92.1113 11.6539C92.0569 11.6539 92.0086 11.6599 91.9543 11.6659C91.4954 13.7189 91.0365 15.7718 90.5655 17.8851H93.4095Z" fill="white"/>
<path d="M196.189 23.2709C195.042 23.2709 193.979 23.2829 192.922 23.2528C192.802 23.2528 192.627 23.0173 192.578 22.8603C192.337 22.0633 192.119 21.2602 191.926 20.4511C191.842 20.113 191.679 19.9922 191.334 19.9982C190.477 20.0164 189.614 20.0164 188.75 19.9982C188.376 19.9922 188.195 20.1492 188.11 20.5054C187.923 21.2964 187.724 22.0934 187.494 22.8724C187.452 23.0293 187.265 23.2528 187.138 23.2588C186.081 23.289 185.019 23.2769 183.865 23.2769C184.252 21.9304 184.608 20.6564 184.976 19.3944C185.942 16.0916 186.927 12.7949 187.875 9.48601C187.989 9.0875 188.164 8.97882 188.551 8.98485C189.68 9.00297 190.803 9.00901 191.932 8.98485C192.331 8.97882 192.488 9.09958 192.59 9.49809C193.623 13.5194 194.68 17.5408 195.73 21.5561C195.875 22.1055 196.02 22.6489 196.183 23.2829L196.189 23.2709ZM188.617 17.9393C189.426 17.9393 190.097 17.9393 190.767 17.9393C191.479 17.9393 191.503 17.9272 191.359 17.2087C191.099 15.8924 190.809 14.5761 190.537 13.2658C190.429 12.7405 190.326 12.2212 190.223 11.6959C190.163 11.6959 190.109 11.6959 190.048 11.6959C189.583 13.7368 189.118 15.7777 188.623 17.9453L188.617 17.9393Z" fill="white"/>
<path d="M153.035 16.9852C153.035 18.2532 153.023 19.4548 153.059 20.6564C153.059 20.7711 153.391 20.9643 153.579 20.9704C154.804 21.0005 156.036 20.9824 157.268 20.9824C157.491 20.9824 157.715 20.9824 158.023 20.9824C158.023 21.6949 158.053 22.3591 157.992 23.0173C157.98 23.1259 157.594 23.2829 157.377 23.2829C155.45 23.301 153.524 23.295 151.598 23.289C151.043 23.289 150.493 23.2648 149.938 23.295C149.461 23.3252 149.334 23.1078 149.34 22.6791C149.352 21.5379 149.346 20.3907 149.346 19.2495C149.346 16.001 149.364 12.7586 149.346 9.51015C149.346 9.06333 149.485 8.95465 149.908 8.96068C152.323 8.9788 154.744 8.97276 157.159 8.96068C157.552 8.96068 157.721 9.07541 157.709 9.47996C157.691 10.0475 157.709 10.6151 157.709 11.2733C156.483 11.2733 155.342 11.2733 154.201 11.2733C152.878 11.2733 153.029 11.1706 153.023 12.4688C153.023 13.145 153.035 13.8153 153.047 14.4915C153.047 14.5459 153.09 14.6063 153.132 14.727C154.339 14.727 155.565 14.7572 156.785 14.7149C157.322 14.6968 157.491 14.8478 157.479 15.3972C157.461 16.9852 157.479 16.9852 155.909 16.9852H153.029H153.035Z" fill="white"/>
<path d="M183.274 20.9706C183.274 21.6952 183.298 22.3654 183.249 23.0296C183.243 23.1322 182.881 23.2832 182.682 23.2892C180.43 23.3073 178.171 23.3013 175.919 23.3013C175.122 23.3013 174.319 23.2892 173.522 23.3013C173.154 23.3073 173.033 23.1745 173.015 22.8062C172.979 22.1118 173.112 21.514 173.486 20.9042C175.291 17.9637 177.042 14.9929 178.812 12.0343C178.92 11.8471 179.011 11.6479 179.156 11.3641C178.848 11.3339 178.636 11.2916 178.425 11.2916C177.054 11.2856 175.678 11.2675 174.307 11.2916C173.794 11.3037 173.583 11.1829 173.589 10.6154C173.601 8.97301 173.577 8.97301 175.225 8.97301C177.707 8.97301 180.182 8.98509 182.664 8.96094C183.189 8.96094 183.298 9.13604 183.322 9.62512C183.376 10.561 183.129 11.358 182.64 12.1611C180.985 14.8541 179.385 17.5833 177.767 20.3004C177.658 20.4815 177.58 20.6808 177.441 20.9706H183.28H183.274Z" fill="white"/>
<path d="M118.353 11.4365C117.217 11.364 116.215 11.2916 115.207 11.2432C114.989 11.2312 114.76 11.3097 114.555 11.3882C114.005 11.6116 113.546 11.9376 113.462 12.5897C113.377 13.272 113.733 13.743 114.265 14.057C115.038 14.5098 115.865 14.8661 116.65 15.3069C117.217 15.6269 117.797 15.9529 118.274 16.3877C120.243 18.1568 119.983 20.886 117.731 22.2868C116.614 22.9812 115.382 23.3676 114.078 23.3556C112.9 23.3495 111.717 23.2167 110.539 23.114C110.244 23.0899 109.96 22.9571 109.616 22.8604C109.797 22.0755 109.96 21.3509 110.123 20.6445C111.004 20.7834 111.825 20.9947 112.647 21.0188C113.407 21.043 114.211 20.9887 114.929 20.7532C116.076 20.3788 116.336 19.0927 115.46 18.2534C115.026 17.8368 114.458 17.559 113.939 17.2451C113.166 16.7862 112.333 16.4239 111.608 15.9046C108.589 13.749 109.791 10.5972 112.339 9.51033C114.325 8.665 116.396 8.64085 118.467 9.21446C118.606 9.25069 118.793 9.5224 118.769 9.65524C118.661 10.2892 118.485 10.9172 118.359 11.4244L118.353 11.4365Z" fill="white"/>
<path d="M135.64 11.4305C134.498 11.3641 133.49 11.2856 132.482 11.2554C132.21 11.2494 131.92 11.3641 131.667 11.4849C130.513 12.0343 130.38 13.248 131.437 13.9605C132.107 14.4133 132.898 14.6911 133.581 15.1319C134.432 15.6753 135.368 16.1825 136.026 16.9191C137.457 18.5252 137.071 20.8439 135.314 22.1058C134.311 22.8304 133.164 23.2289 131.962 23.3376C130.417 23.4764 128.853 23.4644 127.343 23.0055C127.211 22.9632 127.09 22.8908 126.927 22.8183C127.096 22.0756 127.265 21.3511 127.428 20.6567C128.315 20.7956 129.119 21.0129 129.922 21.025C130.719 21.0431 131.564 20.9767 132.319 20.7291C133.363 20.385 133.641 19.0807 132.826 18.3441C132.222 17.7946 131.431 17.4505 130.731 17.0037C129.91 16.4783 129.022 16.0195 128.297 15.3794C126.679 13.9424 126.794 11.654 128.46 10.2531C129.577 9.31723 130.924 8.94287 132.325 8.90664C133.436 8.87645 134.553 9.07571 135.67 9.18439C136.074 9.22062 136.165 9.45007 136.062 9.82442C135.893 10.4101 135.754 10.9958 135.646 11.4305H135.64Z" fill="white"/>
<path d="M108.046 9.30498C107.852 10.102 107.671 10.8266 107.496 11.5391C106.735 11.4183 106.023 11.213 105.31 11.2251C104.64 11.2371 103.916 11.3639 103.312 11.6417C102.454 12.0402 102.34 13.1391 103.07 13.7309C103.644 14.2018 104.35 14.5158 105.003 14.8902C105.655 15.2645 106.361 15.5725 106.971 16.0072C109.67 17.9515 109.326 21.2603 106.289 22.637C103.982 23.6816 101.603 23.5729 99.212 22.9872C99.0732 22.951 98.88 22.6792 98.8981 22.5404C98.9886 21.9003 99.1456 21.2724 99.2785 20.6444C100.16 20.7833 100.975 21.0007 101.802 21.0188C102.599 21.0369 103.445 20.9644 104.193 20.7169C105.238 20.3727 105.534 19.153 104.743 18.3922C104.139 17.8126 103.336 17.4503 102.611 16.9974C101.923 16.5627 101.186 16.1944 100.54 15.7053C98.1192 13.8999 98.7954 11.0802 100.866 9.87255C103.125 8.55022 105.528 8.64683 108.04 9.2929L108.046 9.30498Z" fill="white"/>
<path d="M144.346 23.2471H140.724C140.724 22.9814 140.724 22.7399 140.724 22.5044C140.724 19.0748 140.705 15.6452 140.742 12.2156C140.748 11.5695 140.542 11.4186 139.945 11.4487C139.075 11.497 138.2 11.4608 137.312 11.4608V9.01541C137.542 9.00333 137.741 8.98522 137.94 8.98522C141.013 8.98522 144.087 8.9973 147.154 8.97314C147.71 8.97314 147.879 9.14221 147.818 9.67356C147.776 10.054 147.818 10.4464 147.836 10.8329C147.867 11.3401 147.637 11.497 147.142 11.4729C146.43 11.4367 145.705 11.491 144.992 11.4548C144.473 11.4246 144.334 11.6178 144.334 12.119C144.352 15.5667 144.346 19.0204 144.346 22.4682V23.2471Z" fill="white"/>
<path d="M121.299 23.2707C121.299 22.9507 121.299 22.7273 121.299 22.5099C121.299 18.241 121.305 13.9721 121.287 9.70321C121.287 9.15374 121.414 8.93638 122 8.9726C122.815 9.02091 123.636 9.00279 124.457 8.97864C124.831 8.96656 124.958 9.11148 124.958 9.47376C124.952 13.9057 124.958 18.3376 124.934 22.7695C124.934 22.9386 124.711 23.2465 124.584 23.2465C123.521 23.2828 122.458 23.2707 121.287 23.2707H121.299Z" fill="white"/>
<path d="M191.733 30.456C191.733 28.5238 191.739 26.6701 191.733 24.8225C191.733 24.4723 191.86 24.3455 192.204 24.3817C192.482 24.4119 192.765 24.4119 193.134 24.43C193.134 24.9251 193.134 25.384 193.134 25.8489C193.134 27.1532 193.104 28.4574 193.146 29.7555C193.164 30.3412 192.995 30.5828 192.397 30.4922C192.204 30.462 191.999 30.468 191.733 30.456Z" fill="white"/>
<path d="M182.495 26.32C182.38 26.6461 182.308 26.8333 182.229 27.0567C181.975 27.0204 181.728 26.9238 181.504 26.9661C181.275 27.0084 181.07 27.1895 180.852 27.3042C180.997 27.4975 181.106 27.7269 181.293 27.8658C181.535 28.0469 181.849 28.1254 182.096 28.3005C182.929 28.8862 182.875 29.8704 181.963 30.3051C181.16 30.6916 180.321 30.7157 179.433 30.3353C179.512 30.1119 179.578 29.9127 179.657 29.6953C180.031 29.7376 180.375 29.8281 180.707 29.7919C180.937 29.7678 181.142 29.5685 181.366 29.4477C181.227 29.2485 181.112 29.019 180.931 28.8621C180.786 28.7353 180.563 28.699 180.381 28.6085C179.88 28.3549 179.476 28.0288 179.548 27.3888C179.621 26.7729 180.043 26.4227 180.593 26.3442C181.178 26.2597 181.788 26.3261 182.495 26.3261V26.32Z" fill="white"/>
<path d="M186.148 26.2781H187.217C187.283 26.429 187.355 26.592 187.416 26.7249C187.844 26.5317 188.279 26.3384 188.811 26.0969V27.1838C187.615 27.5038 187.5 27.6608 187.5 28.9288C187.5 29.4178 187.5 29.9009 187.5 30.4383H186.148V26.2781Z" fill="white"/>
<path d="M184.27 29.1397C184.711 29.2001 185.061 29.3511 185.037 29.8885C185.013 30.4198 184.638 30.5647 184.21 30.5889C183.799 30.613 183.382 30.1904 183.407 29.8341C183.431 29.4477 183.817 29.1337 184.276 29.1397H184.27Z" fill="white"/>
<path d="M195.102 30.6075C194.692 30.5109 194.287 30.4143 194.293 29.8709C194.299 29.3395 194.661 29.1584 195.108 29.1523C195.525 29.1523 195.863 29.3154 195.881 29.8286C195.893 30.366 195.543 30.5169 195.108 30.6075H195.102Z" fill="white"/>
<path d="M189.885 30.6014C189.451 30.6014 189.046 30.2331 189.082 29.8466C189.131 29.3515 189.469 29.1523 189.934 29.1643C190.38 29.1764 190.682 29.3757 190.694 29.8587C190.706 30.2693 190.326 30.6074 189.891 30.6074L189.885 30.6014Z" fill="white"/>
</g>
<defs>
<clipPath id="clip0_101_11085">
<rect width="196.025" height="30.2265" fill="white" transform="translate(0.16394 0.386719)"/>
</clipPath>
</defs>
</svg>
