<svg xmlns="http://www.w3.org/2000/svg" viewBox="0 0 418.13 691.67"><defs><style>.cls-1{fill:#fd6905;}.cls-2{fill:#fdca01;}</style></defs><g id="Layer_2" data-name="Layer 2"><g id="Layer_1-2" data-name="Layer 1"><path class="cls-1" d="M412.42,10.21c-.19-4.57,3.21-7,5.67-10.21.49,13.26-4.15,25.52-7,37.93-14.89,63.76-31,127.19-45.77,191-15.64,67.73-31.4,135.42-48,202.89-3.94,16-7.19,32.1-11,48.1-2.77,11.69-3.14,11.8-12.27,4.62-34.37-27.07-68.81-54.06-103-81.46-7-5.61-10.73-5.89-15.94,2.76-39.5,65.68-79.48,131-119.32,196.47q-24.68,40.53-49.38,81c-1.59-8.06,2-14.76,4.77-21.82,12.61-32.54,25.18-65.1,37.45-97.78,12.51-33.3,24.71-66.73,37-100.13,11-30.08,21.8-60.26,32.94-90.29,7.86-21.18,16.24-42.16,24.2-63.3,2.28-6,4.4-8,10.37-3.4,14.17,11,29,21,43.43,31.69q33.61,24.82,67,49.94c4.5,3.36,7.69,4.19,9.93-2.87,2.75-8.68,6.52-17,9.76-25.5Q301.49,312,319.66,264.2C332.41,230.51,345.5,197,357.44,163c2.78-7.91,9.15-15.3,6.53-24.95,0,0,.1-.46.1-.46,4.09-.36,4.39-4.1,5.52-7,9-23.61,18.27-47.14,27-70.88C402.51,43.41,409.51,27.53,412.42,10.21Z"/><path class="cls-2" d="M364,138c2.62,9.66-3.75,17-6.53,25-11.94,34-25,67.56-37.78,101.25q-18.14,47.87-36.41,95.68c-3.24,8.51-7,16.82-9.76,25.5-2.24,7.06-5.43,6.23-9.93,2.87q-33.48-25-67-49.94c-14.42-10.65-29.26-20.69-43.43-31.69-6-4.63-8.09-2.65-10.37,3.4-8,21.14-16.34,42.12-24.2,63.3-11.14,30-21.91,60.21-32.94,90.29-12.25,33.4-24.45,66.83-37,100.13C36.35,596.42,23.78,629,11.17,661.52c-2.74,7.06-6.36,13.76-4.77,21.82A13.59,13.59,0,0,1,0,691.67c2.14-17.82,6.93-34.27,10.7-50.91,11.39-50.31,23-100.56,34.58-150.83,12.37-53.79,24.87-107.55,37.13-161.36,8.29-36.37,16.24-72.82,24.4-109.21,3-13.63,3.13-13.6,13.81-6.18q53.76,37.38,107.51,74.76c6,4.2,10.2,6.22,15.41-2.73,18.87-32.43,38.8-64.16,58.33-96.15,5.41.44,4.92,4.83,5.31,8.73.24,2.34,1.4,4.38,3.83,4.13,2.75-.28,2.52-2.91,2.51-5,0-5.93-1.19-11.44-5.32-15.84L316.72,164c3.84-1.82,5.6,5.56,10.32,2.32-3.71-6.72-3.91-13.46.2-20,1.87-1,2.31-2.62,2-4.63,1.91-1,3.94-1.83,4-4.63l-.07.06c5.55-1.19,11.85.44,16.22-5.18,1.58-2,3.47-5.73,6.41-2.41,2.43,2.74,1.17,6.13-1,8.86a9,9,0,0,1-7.16,3.69c-2.17,0-4.73.61-4.54,3.18.26,3.7,3.58,2.4,5.74,2.6C356.1,148.55,359.34,142,364,138Z"/><path class="cls-2" d="M412.42,10.21c-2.91,17.32-9.91,33.2-15.85,49.42-8.71,23.74-17.94,47.27-27,70.88-1.13,2.93-43.56,125.59-47.65,125.94-4.88-3.1-32.65-26.26-41-33C296.51,192.53,386.26,51.73,403.57,22,406,17.82,407.75,12.68,412.42,10.21Z"/></g></g></svg>