<svg xmlns="http://www.w3.org/2000/svg" viewBox="0 0 1540.65 691.67"><defs><style>.cls-1{fill:#fd6905;}.cls-2{fill:#fdca01;}.cls-3{fill:#fff;}</style></defs><g id="Layer_2" data-name="Layer 2"><g id="Layer_1-2" data-name="Layer 1"><path class="cls-1" d="M1005.94,10.21c-.18-4.57,3.21-7,5.67-10.21.49,13.26-4.15,25.52-7,37.93-14.9,63.76-31.05,127.19-45.78,191-15.63,67.73-31.39,135.42-48,202.89-3.93,16-7.19,32.1-11,48.1-2.76,11.69-3.14,11.8-12.26,4.62-34.38-27.07-68.81-54.06-103-81.46-7-5.61-10.73-5.89-15.94,2.76-39.49,65.68-79.47,131-119.31,196.47q-24.67,40.53-49.38,81c-1.6-8.06,2-14.76,4.76-21.82,12.61-32.54,25.18-65.1,37.46-97.78,12.51-33.3,24.71-66.73,37-100.13,11-30.08,21.8-60.26,32.94-90.29,7.86-21.18,16.23-42.16,24.2-63.3,2.28-6,4.39-8,10.36-3.4,14.18,11,29,21,43.43,31.69q33.63,24.82,67.05,49.94c4.5,3.36,7.69,4.19,9.93-2.87,2.75-8.68,6.52-17,9.76-25.5Q895,312,913.18,264.2C925.93,230.51,939,197,951,163c2.78-7.91,9.15-15.3,6.53-24.95l.09-.46c4.1-.36,4.4-4.1,5.52-7,9-23.61,18.28-47.14,27-70.88C996,43.41,1003,27.53,1005.94,10.21Z"/><path class="cls-2" d="M957.5,138c2.62,9.66-3.75,17-6.53,25-11.94,34-25,67.56-37.79,101.25q-18.12,47.87-36.4,95.68c-3.24,8.51-7,16.82-9.76,25.5-2.24,7.06-5.43,6.23-9.93,2.87q-33.5-25-67.05-49.94c-14.42-10.65-29.25-20.69-43.43-31.69-6-4.63-8.08-2.65-10.36,3.4-8,21.14-16.34,42.12-24.2,63.3-11.14,30-21.92,60.21-32.94,90.29-12.25,33.4-24.45,66.83-37,100.13-12.28,32.68-24.85,65.24-37.46,97.78-2.73,7.06-6.36,13.76-4.76,21.82-1.06,3.18-2.5,6-6.4,8.33,2.13-17.82,6.92-34.27,10.69-50.91,11.39-50.31,23-100.56,34.58-150.83q18.57-80.68,37.14-161.36c8.29-36.37,16.23-72.82,24.39-109.21,3.06-13.63,3.13-13.6,13.81-6.18q53.76,37.38,107.52,74.76c6,4.2,10.19,6.22,15.41-2.73,18.86-32.43,38.79-64.16,58.32-96.15,5.42.44,4.93,4.83,5.32,8.73.23,2.34,1.39,4.38,3.83,4.13,2.75-.28,2.51-2.91,2.51-5,0-5.93-1.2-11.44-5.33-15.84L910.24,164c3.84-1.82,5.6,5.56,10.33,2.32-3.71-6.72-3.92-13.46.2-20,1.86-1,2.31-2.62,2-4.63,1.92-1,3.95-1.83,4-4.63l-.07.06c5.55-1.19,11.84.44,16.22-5.18,1.58-2,3.47-5.73,6.41-2.41,2.42,2.74,1.16,6.13-1,8.86a9,9,0,0,1-7.15,3.69c-2.18,0-4.73.61-4.55,3.18.27,3.7,3.58,2.4,5.75,2.6C949.62,148.55,952.86,142,957.5,138Z"/><path class="cls-2" d="M1005.94,10.21c-2.9,17.32-9.9,33.2-15.85,49.42-8.7,23.74-17.94,47.27-27,70.88-1.12,2.93-43.55,125.59-47.64,125.94-4.88-3.1-32.65-26.26-41-33C890,192.53,979.79,51.73,997.1,22,999.55,17.82,1001.27,12.68,1005.94,10.21Z"/><polyline class="cls-3" points="908.65 146 41.44 146 30.66 202 131.92 202 80.96 455 142.28 455 193.38 202 870.65 202"/><path class="cls-3" d="M985.65,145.52l555,.48-11,56.64L972.65,203"/><path class="cls-3" d="M441.62,229,397.73,455H336.27l16.53-85H295.24l-16.52,85H217.28l43.89-226h61.39l-16.44,85h57.74l16.44-85Z"/><path class="cls-3" d="M452,368.16,479.13,229H540.5l-27,139c-4.21,22.05,6.46,36.23,24,36.23,19.94,0,30.05-18.11,33.56-36.23l27-139h61.36l-27,139.16c-11.66,60-52.66,93.53-103.92,93.53C471.41,461.69,442.2,419.14,452,368.16Z"/><path class="cls-3" d="M1154.78,342.21C1141.17,455,1032.17,455,1014.07,455H940.28l43.91-226,73.79-.14C1105.26,228.72,1165.3,256.36,1154.78,342.21ZM1045.32,285h-11L1012.2,399h11.41c26.5,0,63.84-13.39,69.76-56.79C1098.58,305.29,1076.74,285,1045.32,285Z"/><path class="cls-3" d="M1257.47,285l-6.07,31h64.39l-9.66,50h-64.42l-6.43,33h79.65L1304,455h-141l43.89-226h141l-11,56Z"/><path class="cls-3" d="M1476.66,366.82,1523.48,455h-66L1416,368.36,1399.13,455H1338l43.6-226h75.85c45.85,0,78.37,30.28,70.38,77.53C1522.92,335.83,1503.3,358.54,1476.66,366.82Zm-53-38.82,16.3.14c15,.28,26.15-8.29,28.12-21.37S1461.29,284,1448.5,284h-16.31Z"/><path class="cls-3" d="M776.65,523.47h31.7l3.38,97.25h.43l32.35-97.25h28.75l2,96.16h.44l33-96.16h32.57L881,684.75H851.18l-2.45-72.12q-.42-11.83-.21-22.84h-.43q-5.69,18.74-7.87,25l-24.77,70H786Z"/><path class="cls-3" d="M978.42,688.74q-26.35,0-36.65-22.41t-3.62-64.7q6.17-39,23.49-60.82T1003.8,519q26.48,0,37,21.87t4.13,62.46q-6.4,40.59-23.72,63T978.42,688.74Zm19.82-133.13q-17.87,0-25.2,46.51-4.74,30-1.8,40t11.55,10q9.26,0,15.79-10t11.16-39.27Q1017.2,555.61,998.24,555.61Z"/><path class="cls-3" d="M1082.07,523.47h33.33l27.25,93,1.54-17.39,11.94-75.63h33l-25.46,161.28H1129.8l-26.61-91.57-2.29,20.05-11.29,71.52h-33Z"/><path class="cls-3" d="M1220.4,523.47h30.82q32,0,45.5,20.24t7.32,59.13q-4.65,29.48-15.73,47.6t-27.12,26.22a74.37,74.37,0,0,1-33.9,8.09h-32.35ZM1248,557.78l-14.6,92.54q15.25-1.46,23.09-11.78t11.58-34a109.21,109.21,0,0,0,1.57-23.74q-.64-9.72-4.11-15t-7.37-6.46A44,44,0,0,0,1248,557.78Z"/><path class="cls-3" d="M1338.8,523.47h66.76l-5.41,34.31h-33.77l-4.69,29.72H1391L1385.71,621h-29.3l-4.64,29.36h34l-5.44,34.43h-67Z"/><path class="cls-3" d="M1431.81,523.47h38.45q23.31,0,34.72,13.29t7.81,36.12a60.31,60.31,0,0,1-8.7,22.65A45,45,0,0,1,1486.56,612l14.88,72.73h-34.85L1451.5,611.3H1451l-11.59,73.45h-33Zm28.09,31.17-6.05,38.3q22-.5,24.58-17,1.78-11.24-2.52-16.07T1459.9,554.64Z"/><path class="cls-3" d="M0,680l6.87-30.41a135.79,135.79,0,0,0,32,.2c4.14-.49,8.25-1.21,11.39-4.47C55.4,640,54.12,632,54,631.19c-.89-5.12-3.79-8.57-7.28-12.58-16-18.41-17.85-18.32-21.5-24.05-6.94-10.9-6.37-22.38-6.11-27.6.31-6.32,1.22-18.13,10.09-27.29A38.74,38.74,0,0,1,42.65,531a50.32,50.32,0,0,1,20.52-4l42.2,1q-2.09,13.17-4.16,26.34L66.65,554c-.94.07-9.82.84-13.9,8-3.51,6.15-1.07,12.8.12,16,1.87,5,4.59,7.63,9.93,13.32,10.55,11.24,15.9,16.83,18.5,21.44a54.15,54.15,0,0,1,6.77,25.34c.06,5.06.15,13.94-5.43,22.41a38.64,38.64,0,0,1-11.25,10.72,44.36,44.36,0,0,1-14.53,6.82c-5,1.27-9.8,1.53-15.08,1.82-1.32.07-2.23.07-2.79.07-3,0-6.62-.55-6.62-.48s1.88.31,3.63.54Z"/><path class="cls-3" d="M488,680l6.87-30.41a135.79,135.79,0,0,0,32,.2c4.14-.49,8.25-1.21,11.39-4.47C543.4,640,542.12,632,542,631.19c-.89-5.12-3.79-8.57-7.28-12.58-16-18.41-17.85-18.32-21.5-24.05-6.94-10.9-6.37-22.38-6.11-27.6.31-6.32,1.22-18.13,10.09-27.29A38.74,38.74,0,0,1,530.65,531a50.32,50.32,0,0,1,20.52-4l42.2,1q-2.08,13.17-4.16,26.34L554.65,554c-.94.07-9.82.84-13.9,8-3.51,6.15-1.07,12.8.12,16,1.87,5,4.59,7.63,9.93,13.32,10.55,11.24,15.9,16.83,18.5,21.44a54.15,54.15,0,0,1,6.77,25.34c.06,5.06.15,13.94-5.43,22.41a38.64,38.64,0,0,1-11.25,10.72,44.36,44.36,0,0,1-14.53,6.82c-5,1.27-9.8,1.53-15.08,1.82-1.32.07-2.23.07-2.79.07-3,0-6.62-.55-6.62-.48s1.88.31,3.63.54Z"/><path class="cls-3" d="M121.78,527.23H158.1q19.17,0,28.68,12.93t6,34.08q-3.66,22.31-17.49,35t-34.66,12.64h-5l-9.51,58.11H96.77Zm24.55,29.29-5.9,36q9.91-.24,15.3-4.46t6.89-13.39q1.62-9.84-2.27-13.9T146.33,556.52Z"/><path class="cls-3" d="M239.2,683.71q-23.43,0-32.26-21.22t-2.27-61.25q6-36.94,21.78-57.59T264.26,523q23.53,0,32.59,20.7t2.77,59.14q-6.3,38.43-22,59.65T239.2,683.71Zm19.58-126.05q-15.88,0-23.09,44-4.65,28.37-2.19,37.86t10.12,9.49q8.24,0,14.19-9.49t10.5-37.18Q275.63,557.67,258.78,557.66Z"/><path class="cls-3" d="M333.79,527.23H368q20.73,0,30.68,12.58T405.07,574A60,60,0,0,1,397,595.46a42.12,42.12,0,0,1-15.82,15.62l12.16,68.86h-31L350,610.39h-.48l-11.39,69.55H308.78Zm24.52,29.51L352.37,593q19.53-.45,22.11-16.12,1.74-10.65-2-15.22T358.31,556.74Z"/><path class="cls-3" d="M425.22,527.23h70l-5.72,34.89H469.29L450,679.94H420.26l19.3-117.82H419.51Z"/></g></g></svg>