<?xml version="1.0" encoding="UTF-8"?>
<svg version="1.1" xmlns="http://www.w3.org/2000/svg" width="1791" height="268">
<path d="M0 0 C5.28 0 10.56 0 16 0 C19.96 26.73 23.92 53.46 28 81 C29.7325 72.028125 31.465 63.05625 33.25 53.8125 C33.78786133 51.0278833 34.32572266 48.2432666 34.87988281 45.37426758 C35.10214539 44.22286789 35.32440796 43.0714682 35.55340576 41.88517761 C36.00884873 39.52591242 36.46464911 37.1667162 36.92071533 34.80757141 C38.03279222 29.04782271 39.13749231 23.28698346 40.21679688 17.52099609 C40.49290802 16.05046028 40.49290802 16.05046028 40.77459717 14.55021667 C41.11320228 12.74236728 41.44933421 10.93405222 41.78253174 9.12519836 C42.88928158 3.22143685 42.88928158 3.22143685 44 1 C48.29 1 52.58 1 57 1 C60.92990511 19.45704629 64.48521289 37.96988507 67.92675781 56.5234375 C68.57891349 60.034319 69.23461618 63.54452428 69.890625 67.0546875 C70.08851624 68.12838593 70.28640747 69.20208435 70.49029541 70.30831909 C70.67428894 71.29180328 70.85828247 72.27528748 71.04785156 73.28857422 C71.20819885 74.15328339 71.36854614 75.01799255 71.53375244 75.90890503 C71.92141542 78.04436924 71.92141542 78.04436924 73 80 C73.20338234 78.58512299 73.20338234 78.58512299 73.41087341 77.1416626 C74.68870531 68.25404303 75.96871299 59.36673919 77.25085354 50.47974014 C77.9099493 45.91080397 78.56827702 41.34175987 79.22485352 36.77246094 C79.85846831 32.36315917 80.49409531 27.95415177 81.13112068 23.54534149 C81.37384852 21.86293625 81.61585014 20.18042606 81.85711479 18.49781036 C82.19505973 16.14181331 82.53558064 13.78620199 82.87670898 11.43066406 C82.97597183 10.73438904 83.07523468 10.03811401 83.17750549 9.32073975 C83.63998306 6.14512986 84.21995607 3.1201757 85 0 C89.95 0 94.9 0 100 0 C97.97285872 15.38247027 95.67798461 30.70645573 93.20703125 46.0234375 C92.85237068 48.23398298 92.49793896 50.44456519 92.14372253 52.65518188 C91.22375167 58.39276069 90.3007339 64.12984501 89.37701416 69.86682129 C88.42978944 75.75335845 87.485539 81.64037265 86.54101562 87.52734375 C84.69687143 99.01868995 82.84949827 110.5095144 81 122 C76.38 122 71.76 122 67 122 C63.23406242 104.38496393 59.82809066 86.71497892 56.55749512 69.00189209 C55.92896225 65.60115811 55.2973331 62.20099918 54.66601562 58.80078125 C53.44109271 52.2010597 52.21941768 45.60074091 51 39 C48.85665213 47.92511761 47.00065255 56.88702905 45.30582809 65.90668297 C44.88778658 68.13088735 44.46634604 70.35442568 44.0440979 72.57783508 C42.99908046 78.08392959 41.95930112 83.59100981 40.92010498 89.09820557 C40.03489407 93.78867224 39.14734146 98.47868288 38.25642776 103.16806984 C37.84138043 105.35799999 37.42984424 107.54857162 37.0184021 109.73918152 C36.76554187 111.07184229 36.51250987 112.40447047 36.25927734 113.73706055 C35.92976578 115.48360176 35.92976578 115.48360176 35.59359741 117.26542664 C35 120 35 120 34 122 C29.38 122 24.76 122 20 122 C15.74573209 97.40236335 11.61838405 72.78522691 7.56591797 48.15356445 C6.76760891 43.30162863 5.96672512 38.45012135 5.16524696 33.59870815 C4.54134271 29.82011646 3.91890781 26.04128387 3.29691696 22.26237679 C3.00156611 20.46927784 2.70571621 18.67626102 2.40935135 16.88332939 C2.00135426 14.41392309 1.59537556 11.94419342 1.18994141 9.47436523 C1.06845734 8.74172958 0.94697327 8.00909393 0.82180786 7.2542572 C0 2.2284577 0 2.2284577 0 0 Z " fill="#000000" transform="translate(1303,79)"/>
<path d="M0 0 C4.29 0 8.58 0 13 0 C17.65473074 9.79647383 22.04428989 19.66360458 26.1875 29.6875 C32.33679417 44.51241659 38.67657372 59.24533869 45 74 C45.33 49.58 45.66 25.16 46 0 C51.28 0 56.56 0 62 0 C62 40.26 62 80.52 62 122 C57.71 122 53.42 122 49 122 C48.52804199 120.87021729 48.05608398 119.74043457 47.56982422 118.57641602 C45.74032528 114.19761959 43.90961212 109.81933153 42.07861328 105.44116211 C41.3009614 103.58126487 40.52359736 101.72124725 39.74658203 99.86108398 C32.23406167 81.87731145 24.6119841 63.94253395 17 46 C16.67 71.08 16.34 96.16 16 122 C10.72 122 5.44 122 0 122 C0 81.74 0 41.48 0 0 Z " fill="#000000" transform="translate(1497,79)"/>
<path d="M0 0 C46.98214286 0 46.98214286 0 56 9 C65.78893886 22.64135997 64.32496644 40.76989306 64.26074219 56.76049805 C64.25003071 59.92841786 64.26068841 63.0957693 64.2734375 66.26367188 C64.29813586 100.18231762 64.29813586 100.18231762 55.875 113.3125 C40.70273268 127.49527162 19.56184617 122 0 122 C0 81.74 0 41.48 0 0 Z M18 14 C18 45.35 18 76.7 18 109 C33.84437459 110.57165056 33.84437459 110.57165056 41 105 C46.84792157 98.61612765 45.56137956 88.98973938 45.49609375 80.93359375 C45.49624897 79.36995883 45.49774167 77.80632353 45.50050354 76.24269104 C45.50188279 72.97713055 45.4894083 69.7120118 45.46655273 66.4465332 C45.43814557 62.27485425 45.44091803 58.10390705 45.45364285 53.93217373 C45.460619 50.70723797 45.45278915 47.48246941 45.44038582 44.25755501 C45.43589176 42.71987615 45.43551651 41.18217922 45.43945122 39.64449883 C45.44238327 37.49106302 45.42576457 35.3386134 45.40405273 33.18530273 C45.39864975 31.96366928 45.39324677 30.74203583 45.38768005 29.48338318 C44.80287381 24.22878158 43.40450322 20.30173469 39.4375 16.625 C31.74460803 11.49640535 32.11965643 14 18 14 Z " fill="#000000" transform="translate(1194,79)"/>
<path d="M0 0 C45.01152738 0 45.01152738 0 54.546875 8.35546875 C62.43195522 16.26006649 63.45374106 27.7792529 63.53013611 38.40591431 C63.51965704 39.78363725 63.50828792 41.16135367 63.49609375 42.5390625 C63.49624929 43.99628776 63.49774733 45.45351342 63.50050354 46.91073608 C63.50187612 49.94133143 63.48952108 52.97144693 63.46655273 56.00195312 C63.43811995 59.85586881 63.44093454 63.70899252 63.45364285 67.5629673 C63.46064757 70.56416407 63.45275742 73.56518267 63.44038582 76.56635666 C63.43592128 77.98629444 63.43548992 79.40625168 63.43945122 80.82619095 C63.45703769 92.66732865 62.64734948 104.74834602 54.28125 113.875 C39.6596998 127.8002859 19.20403178 122 0 122 C0 81.74 0 41.48 0 0 Z M18 14 C18 45.35 18 76.7 18 109 C32.73289481 110.19256959 32.73289481 110.19256959 40 106 C44.62036287 100.25576508 45.1192706 95.50740579 45.16113281 88.31713867 C45.16609772 87.66601608 45.17106262 87.01489349 45.17617798 86.34403992 C45.19071511 84.20200521 45.19758743 82.06004456 45.203125 79.91796875 C45.20595238 79.18232508 45.20877975 78.4466814 45.21169281 77.6887455 C45.2266514 73.79566721 45.23590184 69.90262566 45.24023438 66.00952148 C45.24571382 62.0049609 45.26974001 58.0007412 45.29820633 53.99628735 C45.31690583 50.90174909 45.32204218 47.80729176 45.32357025 44.7127018 C45.32658087 43.23722788 45.33455518 41.76175484 45.34775543 40.2863369 C45.47538581 29.29353816 45.47538581 29.29353816 42 19 C34.55415424 11.74030039 29.72534822 14 18 14 Z " fill="#000000" transform="translate(321,79)"/>
<path d="M0 0 C45.2244898 0 45.2244898 0 53.9453125 7.72265625 C61.00411578 15.1506438 63.09795277 24.18156908 63.16113281 34.23632812 C63.17074036 35.4753186 63.1803479 36.71430908 63.19024658 37.99084473 C63.19509808 39.33764459 63.19937604 40.68444662 63.203125 42.03125 C63.20736607 43.05915901 63.20736607 43.05915901 63.21169281 44.10783386 C63.2266584 47.74083843 63.235902 51.37380362 63.24023438 55.00683594 C63.24568734 58.72394044 63.26965482 62.44067276 63.29820633 66.15766144 C63.3170222 69.04566422 63.32204844 71.93358117 63.32357025 74.82164001 C63.32799554 76.84699783 63.34655474 78.87230934 63.36553955 80.89758301 C63.33604978 93.32009794 62.08030375 105.24706739 53.4375 114.7109375 C39.5969936 127.84660329 16.16260001 122 0 122 C0 81.74 0 41.48 0 0 Z M18 14 C18 45.35 18 76.7 18 109 C32.73289481 110.19256959 32.73289481 110.19256959 40 106 C46.0890391 97.44243154 45.17016768 88.04987351 45.203125 77.88671875 C45.20595238 77.21056833 45.20877975 76.53441792 45.21169281 75.83777809 C45.22661862 72.26009363 45.23589002 68.68244881 45.24023438 65.10473633 C45.24571236 61.43671746 45.2697449 57.76907099 45.29820633 54.10116863 C45.31695582 51.25532513 45.32204478 48.40956922 45.32357025 45.5636692 C45.32801341 43.56198938 45.34659455 41.5603567 45.36553955 39.5587616 C45.42013253 26.99718239 45.42013253 26.99718239 39.5 16.4375 C32.05367567 12.15586351 28.72084926 14 18 14 Z " fill="#000000" transform="translate(1577,79)"/>
<path d="M0 0 C4.29 0 8.58 0 13 0 C15.8460027 6.52925188 18.68981569 13.05944812 21.5301733 19.59115791 C22.85031673 22.62675401 24.17154417 25.66186656 25.49438477 28.69628906 C27.02851088 32.21579781 28.55942858 35.73668875 30.08984375 39.2578125 C30.77481178 40.82645554 30.77481178 40.82645554 31.47361755 42.42678833 C36.15783971 53.21989525 40.54119545 64.10069999 45 75 C45.33 50.25 45.66 25.5 46 0 C50.95 0 55.9 0 61 0 C61 40.26 61 80.52 61 122 C57.04 122 53.08 122 49 122 C38.09464081 96.76257009 27.49426498 71.41173255 17 46 C16.67 71.08 16.34 96.16 16 122 C10.72 122 5.44 122 0 122 C0 81.74 0 41.48 0 0 Z " fill="#000000" transform="translate(1115,79)"/>
<path d="M0 0 C7.73497651 6.51604053 10.08559361 15.90996066 11.0078125 25.69140625 C11.17567369 30.12983684 11.19562168 34.56653232 11.2109375 39.0078125 C11.21663757 40.29646713 11.22233765 41.58512177 11.22821045 42.91282654 C11.23867548 45.63695667 11.24454649 48.36105772 11.24804688 51.08520508 C11.253502 54.53536722 11.27748444 57.98512886 11.30601883 61.43516636 C11.32940451 64.77187181 11.33111228 68.1085296 11.3359375 71.4453125 C11.3482843 72.66352188 11.3606311 73.88173126 11.37335205 75.13685608 C11.34385574 86.71084124 10.48313741 100.70710384 2.21875 109.62109375 C-6.17844829 117.43470297 -14.7120306 118.97893909 -25.96484375 118.83984375 C-35.27647957 118.38327322 -42.11562465 115.5679691 -48.7421875 108.94140625 C-58.81203171 94.39607572 -57.31829371 75.92686335 -57.25292969 58.94604492 C-57.24219481 55.63116212 -57.25288964 52.31681972 -57.265625 49.00195312 C-57.28864827 16.18550753 -57.28864827 16.18550753 -49.3046875 2.87890625 C-36.49403343 -9.23928003 -14.1313352 -10.21690611 0 0 Z M-35.3671875 13.12890625 C-38.19753064 17.59213966 -38.1283845 21.48108019 -38.16918945 26.71972656 C-38.17576065 27.41947098 -38.18233185 28.11921539 -38.18910217 28.84016418 C-38.20877005 31.14995443 -38.22048368 33.45967982 -38.23046875 35.76953125 C-38.23454428 36.56125481 -38.2386198 37.35297836 -38.24281883 38.16869354 C-38.26365266 42.36001827 -38.2779655 46.55131053 -38.28735352 50.74267578 C-38.29840745 55.05786693 -38.33280294 59.37254095 -38.37252522 63.68754959 C-38.3987481 67.01799436 -38.40705039 70.34831698 -38.41063499 73.6788559 C-38.41548696 75.26878092 -38.42706113 76.85870099 -38.44567299 78.44852448 C-38.67447631 90.15903296 -38.67447631 90.15903296 -33.9921875 100.69140625 C-29.86723796 104.14744505 -25.27026294 104.9786281 -19.94140625 104.51171875 C-15.51908185 103.69554588 -12.66024404 102.28881589 -9.94476318 98.48779297 C-5.89393599 90.84866015 -6.69790167 81.49585952 -6.7265625 73.12890625 C-6.72521188 71.72843356 -6.72326806 70.32796133 -6.72076416 68.92749023 C-6.71783154 66.0059763 -6.72205008 63.08458545 -6.73144531 60.16308594 C-6.7428388 56.4412811 -6.73626927 52.71976486 -6.72430038 48.99797058 C-6.71703116 46.11012648 -6.71939279 43.22234943 -6.72455597 40.33450317 C-6.72587851 38.96314458 -6.7242944 37.59177965 -6.71959686 36.22042847 C-6.30377599 23.24919336 -6.30377599 23.24919336 -11.3046875 11.75390625 C-18.99605186 5.85123128 -28.36795124 5.94547956 -35.3671875 13.12890625 Z " fill="#000000" transform="translate(1470.9921875,84.30859375)"/>
<path d="M0 0 C7.73497651 6.51604053 10.08559361 15.90996066 11.0078125 25.69140625 C11.17567369 30.12983684 11.19562168 34.56653232 11.2109375 39.0078125 C11.21663757 40.29646713 11.22233765 41.58512177 11.22821045 42.91282654 C11.23867548 45.63695667 11.24454649 48.36105772 11.24804688 51.08520508 C11.253502 54.53536722 11.27748444 57.98512886 11.30601883 61.43516636 C11.32940451 64.77187181 11.33111228 68.1085296 11.3359375 71.4453125 C11.3482843 72.66352188 11.3606311 73.88173126 11.37335205 75.13685608 C11.34385574 86.71084124 10.48313741 100.70710384 2.21875 109.62109375 C-6.17844829 117.43470297 -14.7120306 118.97893909 -25.96484375 118.83984375 C-35.27647957 118.38327322 -42.11562465 115.5679691 -48.7421875 108.94140625 C-58.81203171 94.39607572 -57.31829371 75.92686335 -57.25292969 58.94604492 C-57.24219481 55.63116212 -57.25288964 52.31681972 -57.265625 49.00195312 C-57.28864827 16.18550753 -57.28864827 16.18550753 -49.3046875 2.87890625 C-36.49403343 -9.23928003 -14.1313352 -10.21690611 0 0 Z M-35.3671875 13.12890625 C-38.19753064 17.59213966 -38.1283845 21.48108019 -38.16918945 26.71972656 C-38.17576065 27.41947098 -38.18233185 28.11921539 -38.18910217 28.84016418 C-38.20877005 31.14995443 -38.22048368 33.45967982 -38.23046875 35.76953125 C-38.23454428 36.56125481 -38.2386198 37.35297836 -38.24281883 38.16869354 C-38.26365266 42.36001827 -38.2779655 46.55131053 -38.28735352 50.74267578 C-38.29840745 55.05786693 -38.33280294 59.37254095 -38.37252522 63.68754959 C-38.3987481 67.01799436 -38.40705039 70.34831698 -38.41063499 73.6788559 C-38.41548696 75.26878092 -38.42706113 76.85870099 -38.44567299 78.44852448 C-38.67447631 90.15903296 -38.67447631 90.15903296 -33.9921875 100.69140625 C-29.86723796 104.14744505 -25.27026294 104.9786281 -19.94140625 104.51171875 C-15.51908185 103.69554588 -12.66024404 102.28881589 -9.94476318 98.48779297 C-5.89393599 90.84866015 -6.69790167 81.49585952 -6.7265625 73.12890625 C-6.72521188 71.72843356 -6.72326806 70.32796133 -6.72076416 68.92749023 C-6.71783154 66.0059763 -6.72205008 63.08458545 -6.73144531 60.16308594 C-6.7428388 56.4412811 -6.73626927 52.71976486 -6.72430038 48.99797058 C-6.71703116 46.11012648 -6.71939279 43.22234943 -6.72455597 40.33450317 C-6.72587851 38.96314458 -6.7242944 37.59177965 -6.71959686 36.22042847 C-6.30377599 23.24919336 -6.30377599 23.24919336 -11.3046875 11.75390625 C-18.99605186 5.85123128 -28.36795124 5.94547956 -35.3671875 13.12890625 Z " fill="#000000" transform="translate(769.9921875,84.30859375)"/>
<path d="M0 0 C43.19323671 0 43.19323671 0 53 7 C60.99904269 15.95760565 62.42972151 26.73024828 61.82421875 38.3828125 C60.95046709 45.8494176 58.95237919 52.20918189 54 58 C49.64537445 61 49.64537445 61 47 61 C47.21297729 61.74946396 47.42595459 62.49892792 47.64538574 63.27110291 C49.64808643 70.31945665 51.6495387 77.3681631 53.64957428 84.41727352 C54.67796081 88.04164492 55.70683689 91.66587587 56.73681641 95.28979492 C57.72998774 98.78427414 58.72189319 102.27911036 59.71290588 105.77420235 C60.09203115 107.11043774 60.47161957 108.44654182 60.85166931 109.78251457 C61.38214083 111.64755328 61.91084257 113.51309509 62.43945312 115.37866211 C62.7414563 116.44233505 63.04345947 117.506008 63.35461426 118.60191345 C64 121 64 121 64 122 C58.06 122 52.12 122 46 122 C43.85876507 114.50833531 41.72264817 107.01523783 39.59130859 99.52075195 C38.8651839 96.97021866 38.13765013 94.42008609 37.40869141 91.87036133 C36.36252056 88.21018674 35.32138797 84.54861164 34.28125 80.88671875 C33.95314331 79.7428923 33.62503662 78.59906586 33.2869873 77.420578 C32.98667603 76.35970474 32.68636475 75.29883148 32.37695312 74.20581055 C32.11047974 73.27093307 31.84400635 72.3360556 31.56945801 71.37284851 C31 69 31 69 31 66 C26.71 66 22.42 66 18 66 C18 84.48 18 102.96 18 122 C12.06 122 6.12 122 0 122 C0 81.74 0 41.48 0 0 Z M18 13 C18 25.87 18 38.74 18 52 C31.88196601 53.11803399 31.88196601 53.11803399 39 49 C44.79440687 42.89238195 44.35484122 36.74154301 44.2109375 28.6484375 C43.94990811 24.13359586 43.49934484 21.74901726 41 18 C33.71592114 11.98271747 27.61948594 13 18 13 Z " fill="#000000" transform="translate(796,79)"/>
<path d="M0 0 C44.06234414 0 44.06234414 0 53 8 C60.24936407 16.1717162 61.47817544 25.29291226 61.24609375 35.9140625 C60.59631069 44.06213578 58.73841608 50.91033831 53.79296875 57.4765625 C51.41042175 59.50094884 48.98138188 60.16005699 46 61 C46.38929687 62.24265625 46.77859375 63.4853125 47.1796875 64.765625 C51.14720966 77.55656881 54.8474605 90.41144692 58.4375 103.3125 C58.77766144 104.53012024 58.77766144 104.53012024 59.12469482 105.77233887 C59.77237898 108.09348582 60.4162175 110.41566042 61.05859375 112.73828125 C61.25514053 113.44251724 61.45168732 114.14675323 61.65419006 114.87232971 C63 119.76916656 63 119.76916656 63 122 C57.06 122 51.12 122 45 122 C43.04150928 114.99457591 41.08519427 107.98855312 39.13272858 100.98144722 C38.22608296 97.72797055 37.31847751 94.47476798 36.40869141 91.22216797 C35.36379758 87.48471782 34.32219431 83.7463643 33.28125 80.0078125 C32.95314331 78.83695099 32.62503662 77.66608948 32.2869873 76.45974731 C31.98667603 75.37877777 31.68636475 74.29780823 31.37695312 73.18408203 C31.11047974 72.22921906 30.84400635 71.27435608 30.56945801 70.29055786 C30 68 30 68 30 66 C26.04 66 22.08 66 18 66 C18 84.48 18 102.96 18 122 C12.06 122 6.12 122 0 122 C0 81.74 0 41.48 0 0 Z M18 13 C18 25.87 18 38.74 18 52 C31.03103721 53.04349839 31.03103721 53.04349839 38 49 C42.80936473 43.80068678 43.20340507 39.54277839 43.25 32.6875 C43.270625 31.94048828 43.29125 31.19347656 43.3125 30.42382812 C43.34681994 25.53752647 42.70491596 22.22881228 40 18 C32.87598196 12.26981157 27.3348395 13 18 13 Z " fill="#000000" transform="translate(1717,79)"/>
<path d="M0 0 C43.90684932 0 43.90684932 0 53.6484375 8.42578125 C60.29555706 15.21881319 61.27146839 23.83098167 61.375 33 C61.26958133 42.33614095 60.15930205 50.49803055 53.6953125 57.5625 C51.61275994 59.32835102 49.34925665 60.6162241 47 62 C47.20044922 62.70743851 47.40089844 63.41487701 47.60742188 64.14375305 C49.49499268 70.80813395 51.37881492 77.47356412 53.25842285 84.14019489 C54.22489891 87.56760446 55.19282423 90.99459089 56.1640625 94.4206543 C57.28035836 98.35865318 58.39034688 102.29840537 59.5 106.23828125 C59.84998047 107.46960281 60.19996094 108.70092438 60.56054688 109.96955872 C60.88087891 111.11051498 61.20121094 112.25147125 61.53125 113.42700195 C61.81548828 114.432939 62.09972656 115.43887604 62.39257812 116.47529602 C63 119 63 119 63 122 C57.39 122 51.78 122 46 122 C43.53227431 115.73850991 41.63181205 109.42804149 39.86328125 102.9375 C39.43682564 101.3896582 39.43682564 101.3896582 39.00175476 99.81054688 C38.1018737 96.5413048 37.20711087 93.2706877 36.3125 90 C35.70020839 87.77204233 35.08758162 85.54417675 34.47460938 83.31640625 C32.97919348 77.87866174 31.48836361 72.43967882 30 67 C26.04 66.67 22.08 66.34 18 66 C18 84.48 18 102.96 18 122 C12.06 122 6.12 122 0 122 C0 81.74 0 41.48 0 0 Z M18 13 C18 25.87 18 38.74 18 52 C30.04376519 52.79764397 30.04376519 52.79764397 40 48 C44.03156601 41.88762572 44.64993578 35.16089954 44 28 C42.88017714 22.85375525 41.52709248 18.05884627 37 15 C30.25049874 12.63175394 25.57332518 13 18 13 Z " fill="#000000" transform="translate(461,79)"/>
<path d="M0 0 C4.29 0 8.58 0 13 0 C13.64960693 1.52584717 14.29921387 3.05169434 14.96850586 4.6237793 C17.15552232 9.76064777 19.34277406 14.89741602 21.5301733 20.03412151 C22.85170581 23.13752039 24.17312696 26.24096657 25.49438477 29.34448242 C27.02596992 32.94199443 28.5578806 36.53936769 30.08984375 40.13671875 C30.77481178 41.74591438 30.77481178 41.74591438 31.47361755 43.38761902 C35.96497338 53.93263763 40.48498587 64.46496703 45 75 C45.33 50.25 45.66 25.5 46 0 C50.95 0 55.9 0 61 0 C61 40.26 61 80.52 61 122 C57.04 122 53.08 122 49 122 C43.71448007 110.80515077 38.93630466 99.43020445 34.1875 88 C33.03737171 85.23587546 31.88647179 82.4720767 30.73445129 79.70874023 C30.02514948 78.00692971 29.31689313 76.30468268 28.6101532 74.60180664 C24.48690522 64.69922757 20.22623007 54.86120351 16 45 C15.67 70.41 15.34 95.82 15 122 C10.05 122 5.1 122 0 122 C0 81.74 0 41.48 0 0 Z " fill="#000000" transform="translate(242,79)"/>
<path d="M0 0 C5.94 0 11.88 0 18 0 C18 17.49 18 34.98 18 53 C28.23 53 38.46 53 49 53 C49 35.51 49 18.02 49 0 C54.61 0 60.22 0 66 0 C66 40.26 66 80.52 66 122 C60.39 122 54.78 122 49 122 C49 103.52 49 85.04 49 66 C38.77 66 28.54 66 18 66 C18 84.48 18 102.96 18 122 C12.06 122 6.12 122 0 122 C0 81.74 0 41.48 0 0 Z " fill="#000000" transform="translate(76,79)"/>
<path d="M0 0 C5.94 0 11.88 0 18 0 C18.01458252 2.7951709 18.02916504 5.5903418 18.04418945 8.47021484 C18.09464308 17.73029065 18.1612571 26.9902002 18.23571491 36.25011253 C18.28034373 41.86155115 18.31961637 47.47291842 18.34643555 53.08447266 C18.37254318 58.50517043 18.41299832 63.92559251 18.46318626 69.34611893 C18.47980459 71.40880516 18.49135009 73.47153902 18.49761391 75.53428268 C18.50730988 78.43509216 18.53543443 81.33520428 18.56762695 84.23583984 C18.56547432 85.50036484 18.56547432 85.50036484 18.5632782 86.79043579 C18.67185513 93.75872002 19.52709652 101.1836377 24.25 106.5625 C29.29322479 109.19873114 33.34494665 109.41052652 38.75 107.875 C41.53978381 106.80929311 42.86696086 106.14162232 44.9375 103.9375 C47.578761 96.63519019 48.29839999 89.22543535 48.31884766 81.51123047 C48.33391609 80.17767769 48.33391609 80.17767769 48.34928894 78.81718445 C48.3798541 75.91719126 48.39708103 73.01728921 48.4140625 70.1171875 C48.43279566 68.09122955 48.45237064 66.06527923 48.4727478 64.03933716 C48.52384814 58.73600787 48.56359152 53.43265334 48.60089111 48.12921143 C48.64107004 42.70587027 48.69209871 37.28263208 48.7421875 31.859375 C48.83868487 21.23964884 48.92216855 10.61987938 49 0 C54.61 0 60.22 0 66 0 C66.06807768 11.7362429 66.12298921 23.47235225 66.15543652 35.20874882 C66.17101829 40.65983037 66.19211803 46.11076852 66.22631836 51.56176758 C66.25918105 56.83322474 66.27690915 62.10454494 66.28463173 67.37609673 C66.29012734 69.37609446 66.30085723 71.37608565 66.31719017 73.37602425 C66.57275341 105.99979628 66.57275341 105.99979628 56.58984375 116.48046875 C48.06738775 124.23022207 37.8671187 124.4786707 27 124 C19.94237276 123.3356246 14.25943093 120.79478196 9 116 C-2.11810225 102.00734567 -0.14635164 82.98180021 -0.09765625 66.11328125 C-0.09578792 64.20086199 -0.09436598 62.28844225 -0.09336853 60.37602234 C-0.08957603 55.37678676 -0.07977416 50.37758089 -0.06866455 45.37835693 C-0.05837967 40.26330975 -0.05385584 35.1482577 -0.04882812 30.03320312 C-0.03814853 20.02212036 -0.02057871 10.01106731 0 0 Z " fill="#000000" transform="translate(159,79)"/>
<path d="M0 0 C1.58206422 0.00574487 3.16410406 0.01876032 4.74609375 0.03515625 C6.25121815 0.04664511 7.75634534 0.05777129 9.26147461 0.06860352 C10.55577393 0.07819092 11.85007324 0.08777832 13.18359375 0.09765625 C18.57658267 22.68231578 23.36113667 45.39821888 28.18115234 68.11035156 C29.34159568 73.57829777 30.50597313 79.04539793 31.67143822 84.5122757 C32.57365344 88.74626368 33.47392537 92.98066297 34.37358475 97.2151947 C34.80281554 99.23441544 35.23263905 101.25351028 35.66306686 103.2724762 C36.25830908 106.06600163 36.85095223 108.86006566 37.44287109 111.65429688 C37.62045959 112.48522858 37.7980481 113.31616028 37.98101807 114.17227173 C39.18359375 119.86904627 39.18359375 119.86904627 39.18359375 122.09765625 C33.57359375 122.09765625 27.96359375 122.09765625 22.18359375 122.09765625 C19.8847406 112.46436686 17.9625202 102.83939631 16.18359375 93.09765625 C8.26359375 92.76765625 0.34359375 92.43765625 -7.81640625 92.09765625 C-8.14640625 95.72765625 -8.47640625 99.35765625 -8.81640625 103.09765625 C-9.45270005 106.51933253 -10.11894692 109.89353566 -10.87890625 113.28515625 C-11.06517578 114.14173828 -11.25144531 114.99832031 -11.44335938 115.88085938 C-11.89514063 117.9544195 -12.35489881 120.02623915 -12.81640625 122.09765625 C-18.42640625 122.09765625 -24.03640625 122.09765625 -29.81640625 122.09765625 C-28.07428778 109.34184845 -25.31408289 96.82170554 -22.625 84.23828125 C-22.11437637 81.83791538 -21.60396826 79.43750365 -21.09376526 77.03704834 C-20.02950158 72.0339514 -18.96259772 67.03142686 -17.89379883 62.02929688 C-16.52117853 55.60414808 -15.15532018 49.17758336 -13.79139614 42.75058365 C-12.74153083 37.80713442 -11.68811103 32.86444797 -10.63359261 27.92198944 C-10.12810199 25.55063283 -9.62374061 23.17903523 -9.12051201 20.80719757 C-8.42047361 17.51032697 -7.71566187 14.21451353 -7.00952148 10.91894531 C-6.80119186 9.93308441 -6.59286224 8.94722351 -6.3782196 7.93148804 C-6.09020477 6.5945137 -6.09020477 6.5945137 -5.79637146 5.23052979 C-5.63028098 4.45190708 -5.4641905 3.67328438 -5.29306698 2.87106705 C-4.38429893 -0.5099941 -3.82977521 0.09799834 0 0 Z M4.18359375 28.09765625 C2.89804797 34.87794573 1.6167321 41.65902461 0.33837891 48.44067383 C-0.09716576 50.74847595 -0.53368487 53.05609439 -0.97119141 55.36352539 C-1.59923384 58.67676964 -2.22378949 61.9906548 -2.84765625 65.3046875 C-3.04452026 66.33914505 -3.24138428 67.3736026 -3.44421387 68.43940735 C-3.62440063 69.40017685 -3.8045874 70.36094635 -3.99023438 71.35083008 C-4.15011841 72.19688309 -4.31000244 73.0429361 -4.47473145 73.91462708 C-4.89372203 76.22337471 -4.89372203 76.22337471 -4.81640625 79.09765625 C1.45359375 79.09765625 7.72359375 79.09765625 14.18359375 79.09765625 C11.41248193 62.05299641 8.38312193 45.06700573 5.18359375 28.09765625 C4.85359375 28.09765625 4.52359375 28.09765625 4.18359375 28.09765625 Z " fill="#000000" transform="translate(1064.81640625,78.90234375)"/>
<path d="M0 0 C5.41053936 5.92582883 8.99664315 13.81108714 9.625 21.875 C9.34519093 23.55148316 9.02296646 25.22257403 8.625 26.875 C6.87864835 27.40793835 5.12772348 27.92590663 3.375 28.4375 C2.40046875 28.72753906 1.4259375 29.01757812 0.421875 29.31640625 C-2.33743932 29.86749836 -3.7662824 29.81289609 -6.375 28.875 C-6.48457031 28.15054688 -6.59414063 27.42609375 -6.70703125 26.6796875 C-7.90219315 18.86730483 -7.90219315 18.86730483 -11.375 11.875 C-15.95101211 8.68243341 -19.99122574 8.28514425 -25.375 8.875 C-28.72887733 9.32448979 -28.72887733 9.32448979 -31.375 10.875 C-34.13687363 16.02212812 -34.33059414 22.31199898 -32.828125 27.9140625 C-29.2561916 36.37213122 -20.87103377 41.67734607 -13.9375 47.25 C-3.22153621 55.99556027 8.7381572 66.42685301 11.4140625 80.7578125 C12.34894596 90.14127245 12.37216827 99.28943227 6.9609375 107.35546875 C1.69199917 113.78945121 -4.252991 117.22906257 -12.375 118.875 C-21.73890538 119.50022971 -30.64797036 118.74894108 -38.375 112.875 C-44.94545771 106.88673474 -48.62711882 99.56349673 -50.375 90.875 C-50.49947135 87.86777207 -50.41928988 84.88671196 -50.375 81.875 C-45.095 80.555 -39.815 79.235 -34.375 77.875 C-33.125 85.4375 -33.125 85.4375 -32.76074219 87.77563477 C-31.77805709 93.33120391 -30.21247665 98.78025753 -25.46484375 102.28515625 C-21.12776188 103.50926721 -16.81610464 103.53952084 -12.375 102.875 C-9.47816132 100.6734026 -7.98202769 99.08905538 -6.375 95.875 C-5.38752156 87.74946309 -6.77983785 81.64009983 -11.375 74.875 C-13.5201531 72.29769227 -15.85262588 70.07942781 -18.375 67.875 C-18.94734375 67.359375 -19.5196875 66.84375 -20.109375 66.3125 C-23.26943214 63.50356032 -26.49145531 60.77555727 -29.75 58.08203125 C-48.5016229 42.48324738 -48.5016229 42.48324738 -50.375 30.875 C-51.21931993 20.67983681 -51.07670606 11.48038596 -44.9375 2.85546875 C-33.50416394 -10.19942218 -13.54642078 -8.5292279 0 0 Z " fill="#000000" transform="translate(983.375,84.125)"/>
<path d="M0 0 C7.47887673 6.62900437 10.53387381 15.69482614 11.75 25.4375 C11.255 26.9225 11.255 26.9225 10.75 28.4375 C8.38671875 29.38671875 8.38671875 29.38671875 5.4375 30.125 C4.47199219 30.37636719 3.50648438 30.62773438 2.51171875 30.88671875 C-0.25 31.4375 -0.25 31.4375 -4.25 31.4375 C-4.40855469 30.49648437 -4.56710937 29.55546875 -4.73046875 28.5859375 C-6.41105171 18.91039678 -6.41105171 18.91039678 -12.25 11.4375 C-17.35697031 9.73517656 -21.65375628 9.84629862 -26.625 11.6875 C-29.45249909 13.57249939 -30.05119698 14.3564135 -31.25 17.4375 C-32.18135458 23.75110371 -31.84559576 29.17614952 -28.05078125 34.4140625 C-22.51562472 40.63360932 -16.02138816 45.84328718 -9.5625 51.0625 C1.07590902 59.71850279 11.17047316 69.5718839 13.234375 83.76953125 C14.04442988 94.3836327 13.7733219 102.96662321 6.75 111.4375 C0.31916614 117.76807587 -7.35888053 120.51401313 -16.3125 120.75 C-25.30478595 120.39873883 -32.3637514 118.4937676 -39.25 112.4375 C-46.63299222 104.02507096 -48.47419462 94.2987753 -49.25 83.4375 C-43.97 82.1175 -38.69 80.7975 -33.25 79.4375 C-31.5 87 -31.5 87 -30.97753906 89.33813477 C-29.67115371 94.75631967 -28.01033697 100.39970522 -23.33984375 103.84765625 C-19.00062961 105.07236903 -14.6937187 105.0958287 -10.25 104.4375 C-6.83688333 101.91179367 -5.58362232 100.43836696 -4.25 96.4375 C-3.52074289 89.32724321 -4.47911757 83.24929593 -8.7265625 77.40625 C-12.17664397 73.31026286 -16.00568873 69.74649931 -20.08203125 66.28515625 C-23.38503675 63.47016238 -26.58411121 60.54211068 -29.796875 57.625 C-31.32403993 56.26319688 -32.87299116 54.92496827 -34.453125 53.625 C-41.39397321 47.902774 -47.46253078 40.69396751 -48.46923828 31.41723633 C-48.59031249 29.14848803 -48.62973965 26.89695201 -48.625 24.625 C-48.62338867 23.82618408 -48.62177734 23.02736816 -48.62011719 22.2043457 C-48.49519589 16.20506178 -47.61819007 11.51333889 -44.25 6.4375 C-43.71375 5.53 -43.1775 4.6225 -42.625 3.6875 C-30.86269938 -7.45573216 -13.7661926 -6.61836183 0 0 Z " fill="#000000" transform="translate(618.25,82.5625)"/>
<path d="M0 0 C44.39748476 0 44.39748476 0 52.3984375 6.21875 C60.55092968 15.28591203 61.39925375 26.44164989 61.21484375 38.01171875 C60.78665559 45.96044809 58.70230859 53.22401817 53 59 C42.26649517 67.49641645 32.09822302 66 18 66 C18 84.48 18 102.96 18 122 C12.06 122 6.12 122 0 122 C0 81.74 0 41.48 0 0 Z M18 13 C18 26.2 18 39.4 18 53 C29.32240222 53.88357959 29.32240222 53.88357959 39.4921875 49.671875 C45.67625928 42.75409979 44.47491674 33.71256344 44 25 C43.22139118 20.72684765 42.08273379 17.88328283 38.625 15.0625 C31.57342345 12.20829045 25.9850379 13 18 13 Z " fill="#000000" transform="translate(644,79)"/>
<path d="M0 0 C15.84 0 31.68 0 48 0 C48 4.62 48 9.24 48 14 C38.1 14 28.2 14 18 14 C18 26.87 18 39.74 18 53 C25.92 53 33.84 53 42 53 C42 57.29 42 61.58 42 66 C34.08 66 26.16 66 18 66 C18 80.19 18 94.38 18 109 C27.9 109 37.8 109 48 109 C48 113.29 48 117.58 48 122 C32.16 122 16.32 122 0 122 C0 81.74 0 41.48 0 0 Z " fill="#000000" transform="translate(1656,79)"/>
<path d="M0 0 C15.84 0 31.68 0 48 0 C48 4.62 48 9.24 48 14 C38.1 14 28.2 14 18 14 C18 26.87 18 39.74 18 53 C25.92 53 33.84 53 42 53 C42 57.29 42 61.58 42 66 C34.08 66 26.16 66 18 66 C18 80.19 18 94.38 18 109 C27.9 109 37.8 109 48 109 C48 113.29 48 117.58 48 122 C32.16 122 16.32 122 0 122 C0 81.74 0 41.48 0 0 Z " fill="#000000" transform="translate(400,79)"/>
<path d="M0 0 C19.47 0 38.94 0 59 0 C59 4.62 59 9.24 59 14 C52.4 14 45.8 14 39 14 C39 49.64 39 85.28 39 122 C33.06 122 27.12 122 21 122 C21 86.36 21 50.72 21 14 C14.07 14 7.14 14 0 14 C0 9.38 0 4.76 0 0 Z " fill="#000000" transform="translate(867,79)"/>
<path d="M0 0 C19.47 0 38.94 0 59 0 C59 4.62 59 9.24 59 14 C52.4 14 45.8 14 39 14 C39 49.64 39 85.28 39 122 C33.06 122 27.12 122 21 122 C21 86.36 21 50.72 21 14 C14.07 14 7.14 14 0 14 C0 9.38 0 4.76 0 0 Z " fill="#000000" transform="translate(7,79)"/>
</svg>
